<svg width="375" height="662" viewBox="0 0 375 662" fill="none" xmlns="http://www.w3.org/2000/svg">
<g clip-path="url(#clip0)">
<rect width="375" height="662" fill="#EDEDED"/>
<rect y="419" width="374" height="91" fill="white"/>
<path d="M20.76 477.632C20.968 477.632 21 477.648 21.288 477.68C22.328 477.808 23.688 477.888 24.808 477.888C25.72 477.888 26.264 477.84 27.224 477.68C27.064 477.776 27.032 477.776 26.92 477.84C26.728 477.936 26.696 477.952 26.52 478.048C25.8 478.448 25.416 478.688 24.392 479.376L25.208 480.032C26.776 478.896 28.248 478.016 29.24 477.6L29.16 476.544C28.28 476.768 26.984 476.88 25.112 476.88C23.288 476.88 22.024 476.768 20.856 476.496L20.76 477.632ZM21.72 481.728C20.488 482.768 19.88 483.776 19.88 484.816C19.88 485.92 20.504 486.736 21.704 487.232C22.488 487.536 23.848 487.728 25.384 487.728C26.792 487.728 28.312 487.6 29.704 487.36C29.976 487.312 30.04 487.296 30.248 487.28L30.104 485.968C29.208 486.336 27.304 486.576 25.304 486.576C24.04 486.576 22.984 486.464 22.376 486.256C21.48 485.952 21.016 485.424 21.016 484.688C21.016 483.936 21.496 483.2 22.536 482.336L21.72 481.728ZM36.76 477.632C36.968 477.632 37 477.648 37.288 477.68C38.328 477.808 39.688 477.888 40.808 477.888C41.72 477.888 42.264 477.84 43.224 477.68C43.064 477.776 43.032 477.776 42.92 477.84C42.728 477.936 42.696 477.952 42.52 478.048C41.8 478.448 41.416 478.688 40.392 479.376L41.208 480.032C42.776 478.896 44.248 478.016 45.24 477.6L45.16 476.544C44.28 476.768 42.984 476.88 41.112 476.88C39.288 476.88 38.024 476.768 36.856 476.496L36.76 477.632ZM37.72 481.728C36.488 482.768 35.88 483.776 35.88 484.816C35.88 485.92 36.504 486.736 37.704 487.232C38.488 487.536 39.848 487.728 41.384 487.728C42.792 487.728 44.312 487.6 45.704 487.36C45.976 487.312 46.04 487.296 46.248 487.28L46.104 485.968C45.208 486.336 43.304 486.576 41.304 486.576C40.04 486.576 38.984 486.464 38.376 486.256C37.48 485.952 37.016 485.424 37.016 484.688C37.016 483.936 37.496 483.2 38.536 482.336L37.72 481.728ZM54.872 479.744C54.904 479.744 54.92 479.744 54.936 479.744C54.968 479.744 55.016 479.744 55.096 479.76C55.128 479.76 55.224 479.76 55.368 479.776C55.432 479.776 55.608 479.776 55.88 479.808C56.44 479.84 57.032 479.856 57.688 479.856C58.296 479.856 58.792 479.84 59.512 479.808C59.56 482.144 59.624 483.648 59.672 483.984C59.304 483.792 58.552 483.664 57.896 483.664C56.12 483.664 54.856 484.608 54.856 485.936C54.856 487.328 56.024 488.208 57.88 488.208C59.192 488.208 60.168 487.712 60.552 486.864C60.68 486.576 60.744 486.192 60.744 485.776C60.744 485.632 60.744 485.6 60.712 485.36C60.792 485.408 60.792 485.408 60.856 485.456C60.952 485.52 60.952 485.52 61.016 485.552C62.152 486.208 62.792 486.656 63.288 487.216L63.784 486.096C63.608 485.984 63.576 485.952 63.384 485.824C62.328 485.04 61.88 484.784 60.712 484.256C60.584 482.128 60.552 481.312 60.536 479.728C61.368 479.632 61.816 479.568 62.232 479.472C63.32 479.248 63.32 479.248 63.352 479.248L63.304 478.16C62.696 478.416 61.768 478.608 60.536 478.752C60.52 478.4 60.52 478.144 60.52 477.968C60.52 476.64 60.552 475.888 60.632 475.456H59.432C59.464 475.616 59.48 475.84 59.48 476.112C59.48 477.328 59.48 477.328 59.496 478.832C58.84 478.864 58.408 478.88 57.784 478.88C56.376 478.88 55.688 478.816 54.904 478.624L54.872 479.744ZM59.688 484.96C59.688 484.96 59.704 485.328 59.704 485.44C59.704 486.064 59.608 486.448 59.4 486.688C59.096 487.04 58.472 487.248 57.768 487.248C56.648 487.248 55.912 486.736 55.912 485.952C55.912 485.152 56.728 484.624 57.976 484.624C58.616 484.624 59.032 484.704 59.688 484.96ZM52.04 475.44C52.024 475.648 52.008 475.744 51.864 476.448C51.24 479.216 51.032 480.896 51.032 483.024C51.032 484.64 51.192 486.288 51.48 487.776C51.544 488.144 51.56 488.224 51.576 488.368L52.712 488.256C52.68 488.032 52.68 488.016 52.68 487.936C52.68 486.992 53.304 484.96 54.056 483.392L53.272 483.024C53.24 483.136 53.208 483.2 53.144 483.344C52.6 484.656 52.488 484.96 52.2 486.16L52.136 486.144C52.136 485.984 52.136 485.984 52.136 485.84C52.12 485.552 52.12 485.52 52.12 485.392C52.088 484.656 52.056 483.712 52.056 483.152C52.056 480.528 52.6 477.248 53.288 475.648L52.04 475.44ZM66.12 475.744V477.168H67.672V475.744H66.12ZM66.168 479.28C66.248 479.84 66.28 480.32 66.28 481.088V486.096C66.28 486.768 66.248 487.216 66.168 487.904H67.608C67.528 487.28 67.496 486.832 67.496 486.096V481.088C67.496 480.288 67.528 479.84 67.608 479.28H66.168ZM69.4845 485.568C69.6445 486.224 69.7565 486.496 69.9965 486.832C70.5885 487.648 71.7085 488.08 73.1645 488.08C75.3565 488.08 76.7165 487.088 76.7165 485.488C76.7165 484.832 76.4445 484.224 75.9485 483.824C75.4685 483.456 74.9565 483.264 73.4045 482.912C72.4125 482.704 71.9965 482.576 71.6285 482.368C71.2765 482.176 71.0845 481.856 71.0845 481.488C71.0845 480.64 71.9165 480.048 73.0845 480.048C73.8045 480.048 74.3805 480.256 74.7485 480.656C74.9725 480.88 75.0525 481.072 75.1485 481.504L76.4125 481.296C76.2045 480.56 75.9805 480.192 75.5645 479.84C74.9885 479.328 74.1405 479.072 73.0525 479.072C71.9805 479.072 71.1165 479.36 70.5565 479.904C70.1085 480.336 69.8685 480.88 69.8685 481.456C69.8685 482.16 70.1725 482.752 70.7325 483.136C71.2765 483.504 71.8205 483.696 73.1005 483.968C74.2845 484.208 74.6045 484.304 74.9885 484.544C75.3245 484.752 75.4845 485.088 75.4845 485.536C75.4845 486.48 74.6045 487.072 73.2125 487.072C72.3965 487.072 71.7565 486.88 71.3565 486.512C71.0365 486.224 70.9085 485.936 70.7965 485.344L69.4845 485.568ZM89.0543 475.44C89.5343 475.952 90.3023 477.136 90.7023 477.984L91.5023 477.504C91.0223 476.56 90.5743 475.888 89.8543 475.024L89.0543 475.44ZM78.7503 480.368C79.4703 480.16 79.9183 480.08 81.9663 479.792C81.2463 482.816 79.8703 486.016 78.5423 487.76L79.6303 488.4C81.2943 485.472 82.4143 482.688 83.0863 479.696C83.6783 479.632 83.8863 479.616 84.2383 479.616C85.7263 479.616 86.2063 480.16 86.2063 481.856C86.2063 483.648 85.9663 485.28 85.5343 486.304C85.3263 486.816 85.0223 487.072 84.6223 487.072C84.0463 487.072 83.1503 486.8 82.2383 486.336C82.2863 486.624 82.2863 486.72 82.2863 486.96C82.2863 487.184 82.2863 487.296 82.2543 487.536C83.3103 487.984 83.9823 488.16 84.6703 488.16C85.4223 488.16 85.8542 487.952 86.2383 487.408C86.8943 486.48 87.3103 484.352 87.3103 481.904C87.3103 480.592 87.0863 479.856 86.5263 479.328C86.0303 478.848 85.3583 478.656 84.2223 478.656C83.8543 478.656 83.6463 478.672 83.2783 478.704C83.4063 478.016 83.5503 477.28 83.6143 476.88C83.7423 476.016 83.8223 475.648 83.9183 475.344L82.6383 475.2C82.6383 475.296 82.6383 475.376 82.6383 475.408C82.6383 476.08 82.4303 477.6 82.1583 478.8C79.8063 479.136 79.1983 479.2 78.6223 479.216L78.7503 480.368ZM90.8783 474.592C91.5023 475.312 92.1743 476.352 92.5103 477.104L93.3103 476.64C92.7823 475.632 92.3823 475.04 91.6623 474.16L90.8783 474.592ZM88.1903 478.24C89.6303 479.664 90.9263 481.952 91.4543 483.984L92.4783 483.408C91.8063 481.296 90.7183 479.44 89.1343 477.744L88.1903 478.24ZM101.294 487.36H98.0623V481.792C98.0623 481.008 98.0943 480.464 98.1743 479.952H96.8623C96.9423 480.496 96.9743 481.008 96.9743 481.792V487.36H96.1743C95.3103 487.36 94.8303 487.328 94.3343 487.248V488.448C94.8943 488.368 95.4383 488.336 96.1903 488.336H106.606C107.358 488.336 107.918 488.368 108.446 488.448V487.248C107.886 487.328 107.39 487.36 106.59 487.36H102.398V482.08H105.582C106.318 482.08 106.83 482.112 107.23 482.176V481.024C106.83 481.088 106.35 481.12 105.582 481.12H102.398V476.56H106.11C106.798 476.56 107.358 476.592 107.886 476.656V475.488C107.358 475.552 106.846 475.584 106.11 475.584H96.7343C95.9823 475.584 95.4543 475.552 94.9583 475.488V476.656C95.4863 476.592 96.0303 476.56 96.7663 476.56H101.294V487.36ZM114.798 478.64C115.006 478.288 115.358 477.68 115.534 477.296C115.854 476.688 115.95 476.512 116.11 476.288L115.63 475.76C115.438 475.792 115.262 475.808 114.734 475.808H113.214C113.23 475.776 113.326 475.568 113.486 475.168C113.598 474.896 113.614 474.864 113.678 474.736L112.67 474.496C112.59 474.864 112.51 475.104 112.35 475.536C111.774 476.96 111.102 478 110.03 479.072C110.414 479.312 110.526 479.408 110.782 479.712C110.99 479.456 111.054 479.376 111.198 479.184C111.214 479.536 111.214 479.968 111.214 480.416C111.214 483.104 111.182 484.08 111.086 485.168C110.942 486.672 110.718 487.472 110.174 488.416C110.59 488.64 110.606 488.64 111.07 489.056C111.662 487.76 111.854 486.96 112.03 484.96H115.822V487.648C115.822 487.92 115.694 487.984 115.198 487.984C114.894 487.984 114.318 487.936 113.71 487.856C113.838 488.224 113.886 488.464 113.902 488.832C114.798 488.88 114.91 488.88 115.134 488.88C116.414 488.88 116.718 488.672 116.718 487.792V479.984C116.718 479.344 116.734 478.912 116.782 478.56C116.318 478.624 115.902 478.64 115.31 478.64H114.798ZM112.782 478.64C112.222 478.64 112.046 478.64 111.63 478.624C112.142 477.888 112.478 477.344 112.83 476.64H114.878C114.51 477.424 114.174 478.048 113.806 478.64H112.782ZM112.078 484.128C112.11 483.392 112.11 483.392 112.126 482.144H113.55V484.128H112.078ZM115.822 484.128H114.382V482.144H115.822V484.128ZM115.822 481.328H114.382V479.488H115.822V481.328ZM113.55 479.488V481.328H112.126L112.142 480.544V479.488H113.55ZM119.518 476.24C119.39 477.04 119.278 477.376 118.974 477.84C118.558 478.496 118.014 478.944 116.958 479.504C117.278 479.776 117.454 480 117.614 480.288C118.83 479.552 119.342 479.088 119.838 478.24C120.206 477.632 120.35 477.2 120.526 476.24H122.878C122.798 477.296 122.718 477.856 122.574 478.384C122.478 478.736 122.318 478.832 121.854 478.832C121.486 478.832 121.054 478.768 120.43 478.64C120.558 479.024 120.59 479.2 120.622 479.584C121.262 479.664 121.71 479.696 122.094 479.696C123.054 479.696 123.374 479.408 123.582 478.304C123.694 477.712 123.806 476.784 123.87 475.952C123.902 475.648 123.902 475.6 123.934 475.344C123.518 475.392 123.086 475.408 122.462 475.408H118.814C118.046 475.408 117.614 475.376 117.214 475.312V476.336C117.582 476.272 118.014 476.24 118.734 476.24H119.518ZM120.542 482.656V484.592H118.558C117.982 484.592 117.598 484.56 117.166 484.496V485.568C117.614 485.504 117.982 485.488 118.542 485.488H120.542V487.696C120.542 488.288 120.51 488.672 120.446 489.12H121.566C121.502 488.688 121.47 488.304 121.47 487.696V485.488H123.166C123.854 485.488 124.238 485.504 124.622 485.552V484.496C124.158 484.56 123.742 484.592 123.118 484.592H121.47V482.656H122.686C123.374 482.656 123.806 482.672 124.19 482.736V481.68C123.87 481.744 123.454 481.776 122.686 481.776H121.47V481.376C121.47 480.88 121.502 480.512 121.55 480.096H120.446C120.51 480.496 120.542 480.896 120.542 481.376V481.776H119.054C119.15 481.504 119.15 481.504 119.422 480.704L118.446 480.48C118.446 480.64 118.398 480.864 118.286 481.248C118.014 482.288 117.71 482.896 117.118 483.696C117.454 483.808 117.646 483.904 117.982 484.128C118.382 483.504 118.542 483.184 118.734 482.656H120.542ZM126.926 478.672C127.502 478.528 129.262 478.368 132.446 478.144C134.126 478.032 135.054 477.952 135.966 477.792C135.358 478.08 134.942 478.304 134.446 478.64C132.542 479.936 131.454 481.696 131.454 483.552C131.454 484.88 132.094 486.048 133.23 486.816C134.142 487.44 135.102 487.776 136.686 488.048C136.974 488.096 137.006 488.112 137.182 488.144L137.39 486.848C137.326 486.848 137.262 486.848 137.23 486.848C136.622 486.848 135.614 486.624 134.83 486.336C133.406 485.792 132.59 484.72 132.59 483.376C132.59 482.048 133.278 480.752 134.558 479.68C135.438 478.928 136.558 478.352 137.63 478.08C138.238 477.92 138.782 477.856 139.422 477.856L139.326 476.672C139.102 476.736 138.798 476.768 137.422 476.848L136.51 476.88C135.982 476.896 135.774 476.912 133.806 477.024L131.294 477.184C129.326 477.296 129.23 477.312 128.334 477.376C127.838 477.408 127.646 477.424 127.422 477.424C127.31 477.424 127.15 477.424 126.846 477.408L126.926 478.672ZM136.75 480.208C137.23 480.704 137.998 481.904 138.382 482.752L139.198 482.272C138.718 481.328 138.27 480.656 137.55 479.792L136.75 480.208ZM138.574 479.344C139.198 480.08 139.854 481.104 140.206 481.856L141.006 481.408C140.478 480.4 140.078 479.792 139.358 478.912L138.574 479.344ZM150.254 477.344C149.166 477.376 147.918 477.408 146.382 477.472C143.806 477.568 143.806 477.568 143.342 477.568C143.102 477.568 142.99 477.568 142.702 477.552L142.75 478.72C143.822 478.544 147.054 478.384 150.27 478.32C150.27 478.928 150.27 478.928 150.27 479.152C150.27 479.344 150.286 479.504 150.286 479.568C150.286 480.16 150.286 480.224 150.302 480.448C149.886 479.984 149.214 479.728 148.446 479.728C146.814 479.728 145.614 480.848 145.614 482.368C145.614 483.84 146.702 484.896 148.238 484.896C149.086 484.896 149.774 484.608 150.254 484.032C150.446 483.808 150.542 483.632 150.686 483.248C150.622 484.704 150.062 485.744 148.894 486.624C148.254 487.104 147.55 487.424 146.302 487.824C146.638 488.176 146.734 488.32 147.006 488.832C148.174 488.384 148.878 488.016 149.534 487.536C150.91 486.496 151.678 485.024 151.678 483.36C151.678 482.656 151.566 482.144 151.294 481.472V478.304C152.59 478.272 152.766 478.272 153.006 478.272C154.91 478.272 155.47 478.288 156.062 478.352V477.216C155.534 477.28 154.302 477.312 151.278 477.328V477.152C151.278 475.904 151.294 475.664 151.358 475.152H150.158C150.206 475.488 150.222 475.664 150.222 476.08L150.254 477.344ZM150.206 482.016C150.206 483.136 149.438 483.904 148.334 483.904C147.358 483.904 146.686 483.248 146.686 482.32C146.686 481.36 147.454 480.64 148.462 480.64C148.894 480.64 149.23 480.72 149.534 480.896C149.998 481.152 150.206 481.488 150.206 482.016ZM159.093 484.24C157.765 484.24 156.693 485.312 156.693 486.64C156.693 487.968 157.765 489.04 159.093 489.04C160.421 489.04 161.493 487.968 161.493 486.64C161.493 485.312 160.421 484.24 159.093 484.24ZM159.093 485.152C159.909 485.152 160.581 485.824 160.581 486.64C160.581 487.456 159.909 488.128 159.093 488.128C158.277 488.128 157.605 487.456 157.605 486.64C157.605 485.824 158.277 485.152 159.093 485.152Z" fill="#555555"/>
<path d="M59.025 449.765H55.947V443.609C55.947 442.621 55.985 441.823 56.08 441.158H53.667C53.762 441.861 53.8 442.64 53.8 443.628V449.765H53.401C52.147 449.765 51.634 449.746 50.931 449.632V451.836C51.748 451.741 52.489 451.703 53.439 451.703H65.58C66.587 451.703 67.328 451.741 68.069 451.836V449.632C67.309 449.727 66.511 449.765 65.561 449.765H61.21V444.388H64.459C65.295 444.388 65.998 444.426 66.587 444.502V442.393C65.979 442.469 65.371 442.507 64.459 442.507H61.21V437.871H65.029C65.865 437.871 66.682 437.909 67.442 437.985V435.838C66.663 435.914 65.922 435.952 65.029 435.952H54.028C53.097 435.952 52.356 435.914 51.634 435.838V437.985C52.432 437.909 53.154 437.871 54.047 437.871H59.025V449.765ZM76.657 436.123C76.41 436.18 76.22 436.199 75.669 436.199H73.959C74.263 435.382 74.263 435.382 74.358 435.173L72.344 434.793C72.23 435.458 72.04 436.028 71.641 436.845C71.033 438.156 70.387 439.03 69.494 439.79C70.197 440.379 70.463 440.664 70.748 441.082C70.748 441.31 70.748 441.671 70.748 442.127C70.748 447.637 70.539 449.328 69.608 450.981C70.235 451.418 70.444 451.627 71.185 452.463C71.888 450.962 72.097 450.126 72.325 447.808H76.22V450.126C76.22 450.43 76.049 450.525 75.422 450.525C75.118 450.525 74.624 450.487 73.826 450.392C74.092 451.076 74.187 451.551 74.263 452.292C74.909 452.311 75.232 452.311 75.441 452.311C77.379 452.311 77.911 451.95 77.911 450.601V441.044C77.911 440.892 77.911 440.892 77.911 440.55C78.519 441.158 78.842 441.595 79.108 442.127L79.317 441.994C79.336 442.013 79.336 442.051 79.336 442.051C79.336 442.241 79.222 442.868 79.127 443.305C78.899 444.274 78.69 444.825 78.12 445.813C78.633 445.984 78.994 446.174 79.811 446.687C80.134 446.003 80.248 445.737 80.419 445.224H81.958V446.934H80.077C79.298 446.934 78.899 446.915 78.348 446.839V448.872C78.899 448.796 79.298 448.777 80.058 448.777H81.958V450.677C81.958 451.494 81.92 451.95 81.844 452.539H84.048C83.953 451.969 83.934 451.513 83.934 450.677V448.777H85.435C86.309 448.777 86.727 448.796 87.221 448.853V446.839C86.67 446.915 86.214 446.934 85.397 446.934H83.934V445.224H85.112C85.853 445.224 86.366 445.243 86.803 445.3V443.305C86.423 443.381 85.967 443.419 85.112 443.419H83.934V443.267C83.934 442.773 83.953 442.355 83.991 441.88H81.844C81.92 442.317 81.958 442.716 81.958 443.267V443.419H80.932C80.989 443.134 80.989 443.134 81.16 442.355L79.393 441.975C80.286 441.462 80.932 440.911 81.483 440.151C82.072 439.353 82.281 438.802 82.566 437.472H84.58C84.504 438.346 84.409 438.992 84.295 439.372C84.2 439.657 84.01 439.752 83.516 439.752C83.193 439.752 82.718 439.695 82.053 439.562C82.338 440.246 82.414 440.55 82.49 441.443C83.573 441.481 83.573 441.481 83.877 441.481C85.055 441.481 85.492 441.329 85.815 440.854C86.138 440.379 86.385 439.22 86.518 437.662C86.594 436.579 86.632 436.028 86.689 435.61C86.214 435.667 85.72 435.686 84.998 435.686H80.324C79.412 435.686 78.899 435.667 78.329 435.572V437.567C78.747 437.51 79.241 437.472 80.02 437.472H80.552C80.381 438.308 80.172 438.745 79.735 439.201C79.26 439.714 78.823 440.018 77.911 440.455C77.93 439.923 77.93 439.809 77.968 439.486C77.455 439.543 77.037 439.562 76.163 439.562C76.448 439.106 76.771 438.517 76.961 438.175C77.303 437.491 77.36 437.377 77.531 437.111L76.657 436.123ZM72.686 439.562C72.401 439.562 72.401 439.562 72.249 439.562C72.629 438.992 72.933 438.498 73.237 437.89H75.099C74.833 438.498 74.586 438.954 74.225 439.562H72.686ZM72.439 446.155C72.439 445.851 72.439 445.737 72.458 445.186C72.458 445.034 72.458 444.768 72.458 444.445H73.579V446.155H72.439ZM76.22 446.155H75.118V444.445H76.22V446.155ZM76.22 442.868H75.118V441.253H76.22V442.868ZM73.579 441.253V442.868H72.496V441.253H73.579Z" fill="#555555"/>
<circle cx="30" cy="444" r="11" stroke="#6DE3C4" stroke-width="4"/>
<rect x="1" y="4" width="375" height="85" fill="white"/>
<path d="M75.064 19.032H76.564C77.428 19.032 77.884 19.056 78.328 19.116V17.508C77.872 17.568 77.428 17.592 76.564 17.592H71.812C71.128 17.592 70.612 17.568 70.18 17.508V19.116C70.6 19.056 71.116 19.032 71.824 19.032H73.444V25.584C73.444 26.232 73.42 26.64 73.348 27.144H75.16C75.088 26.652 75.064 26.232 75.064 25.584V19.032ZM83.5118 17.4C82.2398 17.4 81.2438 17.784 80.4158 18.6C79.5278 19.464 79.0478 20.796 79.0478 22.344C79.0478 25.392 80.7998 27.348 83.5238 27.348C86.2478 27.348 88.0118 25.38 88.0118 22.344C88.0118 20.784 87.5438 19.476 86.6678 18.6C85.8518 17.784 84.8318 17.4 83.5118 17.4ZM83.5478 25.92C82.8158 25.92 82.1798 25.668 81.6878 25.188C81.0638 24.564 80.7158 23.556 80.7158 22.356C80.7158 20.184 81.8078 18.816 83.5358 18.816C84.2558 18.816 84.8918 19.068 85.3838 19.548C85.9958 20.16 86.3318 21.132 86.3318 22.344C86.3318 24.552 85.2638 25.92 83.5478 25.92ZM96.2305 25.632C95.7145 25.692 95.3665 25.716 94.6945 25.716H91.0945V22.884H94.0225C94.7665 22.884 95.0905 22.896 95.5825 22.968V21.396C95.0545 21.456 94.6465 21.48 94.0225 21.48H91.1065V19.008H94.5625C95.2705 19.008 95.6545 19.032 96.1105 19.092V17.508C95.5585 17.568 95.1625 17.592 94.5625 17.592H90.9385C90.2065 17.592 89.8945 17.58 89.4145 17.556C89.4865 18.12 89.5105 18.48 89.5105 19.104V25.596C89.5105 26.304 89.4865 26.7 89.4145 27.18C89.8945 27.156 90.2185 27.144 90.9385 27.144H94.6825C95.4145 27.144 95.7985 27.168 96.2305 27.228V25.632ZM97.6293 17.592C97.7013 18.072 97.7253 18.396 97.7253 19.14V25.596C97.7253 26.304 97.7013 26.688 97.6293 27.144H99.4533C99.3813 26.688 99.3573 26.304 99.3573 25.596V19.14C99.3573 18.42 99.3813 18.048 99.4533 17.592H97.6293ZM107.589 23.928C107.493 24.48 107.397 24.732 107.193 25.032C106.809 25.596 106.089 25.92 105.249 25.92C103.569 25.92 102.513 24.552 102.513 22.356C102.513 20.148 103.545 18.816 105.249 18.816C105.993 18.816 106.593 19.068 107.001 19.56C107.241 19.836 107.349 20.064 107.517 20.592L109.185 20.208C109.041 19.752 108.957 19.536 108.813 19.284C108.513 18.756 108.081 18.312 107.541 17.976C106.881 17.58 106.173 17.4 105.237 17.4C104.037 17.4 102.957 17.808 102.237 18.54C101.337 19.44 100.833 20.832 100.833 22.416C100.833 23.952 101.301 25.308 102.141 26.184C102.873 26.94 103.917 27.336 105.225 27.336C106.665 27.336 107.817 26.868 108.501 26.028C108.861 25.56 109.077 25.092 109.305 24.228L107.589 23.928ZM121.605 17.532C121.173 17.58 120.861 17.592 119.961 17.592H116.145C115.437 17.592 115.053 17.568 114.501 17.508V19.092C114.993 19.032 115.365 19.008 116.073 19.008H119.781C118.725 20.496 118.233 21.312 117.681 22.5C116.985 23.988 116.625 25.14 116.229 27.144H118.125C118.449 24.612 119.085 22.776 120.357 20.652C120.873 19.788 121.221 19.296 121.605 18.924V17.532ZM130.148 17.532C129.716 17.58 129.404 17.592 128.504 17.592H124.688C123.98 17.592 123.596 17.568 123.044 17.508V19.092C123.536 19.032 123.908 19.008 124.616 19.008H128.324C127.268 20.496 126.776 21.312 126.224 22.5C125.528 23.988 125.168 25.14 124.772 27.144H126.668C126.992 24.612 127.628 22.776 128.9 20.652C129.416 19.788 129.764 19.296 130.148 18.924V17.532ZM135.151 27.336C136.399 27.336 137.395 26.856 138.067 25.92C138.631 25.14 138.955 23.844 138.955 22.368C138.955 21.384 138.799 20.424 138.487 19.584C138.331 19.152 138.055 18.732 137.695 18.372C137.059 17.736 136.183 17.4 135.163 17.4C133.831 17.4 132.751 17.988 132.103 19.068C131.659 19.8 131.371 21.12 131.371 22.392C131.371 23.364 131.527 24.3 131.839 25.152C131.995 25.584 132.271 26.004 132.631 26.364C133.267 27 134.131 27.336 135.151 27.336ZM135.163 25.944C134.503 25.944 133.999 25.692 133.627 25.164C133.243 24.612 133.015 23.568 133.015 22.308C133.015 21 133.279 20.016 133.807 19.392C134.155 18.972 134.575 18.78 135.151 18.78C135.691 18.78 136.171 18.96 136.459 19.284C136.999 19.872 137.299 20.964 137.299 22.356C137.299 23.76 136.999 24.876 136.459 25.44C136.159 25.764 135.691 25.944 135.163 25.944ZM145.902 19.344H149.118C149.61 19.344 149.982 19.368 150.402 19.416V18.096C150.042 18.144 149.67 18.168 149.118 18.168H145.902V17.976C145.902 17.52 145.926 17.22 145.974 16.92H144.462C144.522 17.268 144.546 17.628 144.546 18.096V20.52H142.686C142.098 20.52 141.666 20.508 141.33 20.46C141.366 20.796 141.378 21.048 141.378 21.456V23.712C141.378 24.06 141.366 24.312 141.33 24.624C141.642 24.588 142.002 24.576 142.47 24.576H148.362C148.83 24.576 149.19 24.588 149.526 24.624C149.49 24.336 149.478 24.096 149.478 23.688V21.456C149.478 21.048 149.49 20.76 149.526 20.46C149.214 20.508 148.83 20.52 148.158 20.52H145.902V19.344ZM148.17 21.696V23.388H142.686V21.696H148.17ZM141.066 27.996C141.726 27.12 142.086 26.412 142.47 25.224L141.282 24.804C141.102 25.428 140.982 25.692 140.718 26.172C140.454 26.64 140.274 26.868 139.866 27.324L141.066 27.996ZM144.834 27.768C144.798 26.856 144.714 26.196 144.522 25.08L143.37 25.26C143.49 26.076 143.55 26.808 143.55 27.492C143.55 27.6 143.55 27.768 143.538 27.984L144.834 27.768ZM147.738 27.564C147.45 26.592 147.234 25.968 146.79 24.96L145.674 25.272C146.034 26.16 146.31 27.12 146.478 28.008L147.738 27.564ZM150.786 27.336C150.006 25.848 149.898 25.668 149.298 24.768L148.17 25.212C148.77 26.16 149.058 26.736 149.55 27.972L150.786 27.336ZM161.478 27.144C162.246 27.144 162.726 27.168 163.29 27.216V25.632C162.894 25.692 162.294 25.728 161.538 25.728H158.178C158.358 25.272 158.502 25.032 158.862 24.648C159.162 24.324 159.762 23.82 160.29 23.448C161.85 22.38 161.97 22.284 162.306 21.972C162.894 21.42 163.158 20.844 163.158 20.052C163.158 18.408 161.862 17.4 159.762 17.4C158.562 17.4 157.614 17.772 157.014 18.468C156.57 18.984 156.354 19.476 156.186 20.388L157.902 20.592C157.986 20.04 158.07 19.776 158.274 19.488C158.574 19.02 159.102 18.78 159.798 18.78C160.818 18.78 161.454 19.284 161.454 20.1C161.454 20.712 161.118 21.108 160.014 21.864C158.814 22.668 158.454 22.944 158.034 23.316C157.254 24.024 156.714 24.792 156.39 25.668C156.234 26.1 156.15 26.52 156.078 27.204C156.498 27.156 156.69 27.144 157.626 27.144H161.478ZM168.233 27.336C169.481 27.336 170.477 26.856 171.149 25.92C171.713 25.14 172.037 23.844 172.037 22.368C172.037 21.384 171.881 20.424 171.569 19.584C171.413 19.152 171.137 18.732 170.777 18.372C170.141 17.736 169.265 17.4 168.245 17.4C166.913 17.4 165.833 17.988 165.185 19.068C164.741 19.8 164.453 21.12 164.453 22.392C164.453 23.364 164.609 24.3 164.921 25.152C165.077 25.584 165.353 26.004 165.713 26.364C166.349 27 167.213 27.336 168.233 27.336ZM168.245 25.944C167.585 25.944 167.081 25.692 166.709 25.164C166.325 24.612 166.097 23.568 166.097 22.308C166.097 21 166.361 20.016 166.889 19.392C167.237 18.972 167.657 18.78 168.233 18.78C168.773 18.78 169.253 18.96 169.541 19.284C170.081 19.872 170.381 20.964 170.381 22.356C170.381 23.76 170.081 24.876 169.541 25.44C169.241 25.764 168.773 25.944 168.245 25.944ZM178.564 27.144C179.332 27.144 179.812 27.168 180.376 27.216V25.632C179.98 25.692 179.38 25.728 178.624 25.728H175.264C175.444 25.272 175.588 25.032 175.948 24.648C176.248 24.324 176.848 23.82 177.376 23.448C178.936 22.38 179.056 22.284 179.392 21.972C179.98 21.42 180.244 20.844 180.244 20.052C180.244 18.408 178.948 17.4 176.848 17.4C175.648 17.4 174.7 17.772 174.1 18.468C173.656 18.984 173.44 19.476 173.272 20.388L174.988 20.592C175.072 20.04 175.156 19.776 175.36 19.488C175.66 19.02 176.188 18.78 176.884 18.78C177.904 18.78 178.54 19.284 178.54 20.1C178.54 20.712 178.204 21.108 177.1 21.864C175.9 22.668 175.54 22.944 175.12 23.316C174.34 24.024 173.8 24.792 173.476 25.668C173.32 26.1 173.236 26.52 173.164 27.204C173.584 27.156 173.776 27.144 174.712 27.144H178.564ZM185.319 27.336C186.567 27.336 187.563 26.856 188.235 25.92C188.799 25.14 189.123 23.844 189.123 22.368C189.123 21.384 188.967 20.424 188.655 19.584C188.499 19.152 188.223 18.732 187.863 18.372C187.227 17.736 186.351 17.4 185.331 17.4C183.999 17.4 182.919 17.988 182.271 19.068C181.827 19.8 181.539 21.12 181.539 22.392C181.539 23.364 181.695 24.3 182.007 25.152C182.163 25.584 182.439 26.004 182.799 26.364C183.435 27 184.299 27.336 185.319 27.336ZM185.331 25.944C184.671 25.944 184.167 25.692 183.795 25.164C183.411 24.612 183.183 23.568 183.183 22.308C183.183 21 183.447 20.016 183.975 19.392C184.323 18.972 184.743 18.78 185.319 18.78C185.859 18.78 186.339 18.96 186.627 19.284C187.167 19.872 187.467 20.964 187.467 22.356C187.467 23.76 187.167 24.876 186.627 25.44C186.327 25.764 185.859 25.944 185.331 25.944ZM200.798 26.148C199.346 24.744 199.346 24.744 199.046 24.48C198.23 23.748 197.582 23.244 196.826 22.74C197.558 21.756 198.146 20.712 198.698 19.428C198.83 19.128 198.926 18.96 199.082 18.78L198.29 17.964C197.99 18.072 197.894 18.084 197.222 18.096L192.998 18.156C192.854 18.156 192.758 18.156 192.71 18.156C192.218 18.156 191.99 18.144 191.654 18.084L191.702 19.62C192.11 19.56 192.434 19.536 193.01 19.524C196.79 19.464 196.79 19.464 196.982 19.452L196.85 19.764C196.07 21.636 194.63 23.376 192.818 24.648C191.918 25.284 191.342 25.608 190.418 25.968C190.91 26.484 191.054 26.676 191.39 27.3C193.226 26.4 194.606 25.344 195.962 23.832C197.27 24.828 198.65 26.172 199.646 27.396L200.798 26.148ZM202.48 24.636C202.648 24.42 202.696 24.36 202.888 24.132C203.536 23.364 204.544 22.116 205.036 21.456C205.528 20.796 205.576 20.76 205.768 20.76C205.972 20.76 205.972 20.76 206.74 21.6C208.96 24.012 209.572 24.624 211.816 26.676L212.572 25.032C212.308 24.864 212.116 24.72 211.432 24.12C210.088 22.968 208.972 21.876 207.544 20.292C206.632 19.26 206.356 19.068 205.756 19.068C205.468 19.068 205.192 19.14 204.94 19.296C204.7 19.452 204.448 19.716 204.04 20.244C202.432 22.26 201.808 22.968 201.46 23.16L202.48 24.636ZM210.34 18.084C209.584 18.084 208.96 18.708 208.96 19.464C208.96 20.232 209.584 20.856 210.34 20.856C211.108 20.856 211.732 20.232 211.732 19.464C211.732 18.708 211.108 18.084 210.34 18.084ZM210.34 18.684C210.784 18.684 211.132 19.032 211.132 19.464C211.132 19.896 210.784 20.256 210.34 20.256C209.908 20.256 209.56 19.896 209.56 19.464C209.56 19.032 209.908 18.684 210.34 18.684ZM215.296 18.684C216.34 19.044 217.408 19.608 218.5 20.34L219.268 19.02C218.26 18.408 217.312 17.952 216.076 17.472L215.296 18.684ZM214.348 21.6C215.572 22.08 216.64 22.656 217.6 23.364L218.344 22.008C217.312 21.336 216.388 20.868 215.152 20.376L214.348 21.6ZM215.032 27.384C215.272 27.312 215.44 27.276 215.872 27.192C218.824 26.604 220.864 25.536 222.388 23.784C223.132 22.908 223.636 22.08 224.188 20.748C223.612 20.352 223.432 20.196 222.94 19.68C222.568 20.748 222.196 21.468 221.548 22.332C220.588 23.616 219.568 24.396 218.08 24.972C216.832 25.452 215.524 25.74 214.612 25.752L215.032 27.384ZM228.736 21.192L227.74 21.36C227.284 21.432 226.984 21.468 226.6 21.468L226.852 22.836C227.2 22.716 227.488 22.644 227.908 22.572L228.94 22.404L229.756 26.88C229.828 27.276 229.852 27.54 229.852 27.852L231.352 27.588C231.244 27.276 231.244 27.276 231.124 26.616L230.272 22.176L233.092 21.708C233.392 21.66 233.392 21.66 233.536 21.624C233.044 22.524 232.384 23.22 231.496 23.772C232 24.036 232.18 24.168 232.612 24.624C233.764 23.736 234.448 22.836 234.976 21.504C235.096 21.216 235.168 21.084 235.276 20.928L234.436 20.172C234.196 20.268 233.992 20.328 233.644 20.376L230.056 20.976L229.876 20.052C229.792 19.632 229.756 19.368 229.756 19.128L228.328 19.344C228.436 19.608 228.46 19.728 228.556 20.244L228.736 21.192ZM239.319 17.616C239.367 17.94 239.367 18.048 239.367 18.708C239.367 22.068 239.091 23.616 238.227 24.996C237.867 25.572 237.579 25.896 236.991 26.376C237.555 26.76 237.735 26.94 238.203 27.54C238.995 26.76 239.451 26.148 239.859 25.32C240.483 24.084 240.747 22.728 240.831 20.388C240.903 18.036 240.903 18.036 240.951 17.7L239.319 17.616ZM242.499 17.532C242.535 17.76 242.547 18.024 242.547 18.324V18.684L242.487 25.452C242.475 26.112 242.463 26.376 242.379 26.724L243.147 27.54C243.303 27.468 243.399 27.42 243.663 27.324C244.911 26.832 245.535 26.472 246.219 25.884C247.011 25.176 247.635 24.276 248.127 23.088C247.575 22.656 247.419 22.5 246.999 21.96C246.723 22.848 246.375 23.508 245.823 24.156C245.307 24.768 244.827 25.128 243.987 25.524L244.047 18.696C244.059 18.108 244.071 17.904 244.131 17.556L242.499 17.532ZM251.484 18.012C251.484 18.084 251.484 18.144 251.484 18.18C251.484 18.444 251.448 18.852 251.376 19.344C251.184 20.856 250.764 22.344 250.248 23.46C249.744 24.564 249.252 25.296 248.532 26.016C249.108 26.328 249.336 26.508 249.9 27.048C251.508 25.2 252.444 22.836 252.948 19.392L252.984 19.104L253.044 18.756L253.068 18.552C253.08 18.456 253.092 18.444 253.128 18.312L251.484 18.012ZM255.048 18.3C255.108 18.48 255.144 18.672 255.216 19.164C255.684 22.392 256.8 25.152 258.396 27.06C258.852 26.544 259.104 26.34 259.716 25.956C258.468 24.612 257.628 22.992 257.04 20.772C256.764 19.74 256.548 18.564 256.536 18.012L255.048 18.3ZM256.656 17.556C257.112 18.228 257.364 18.744 257.64 19.512L258.552 19.224C258.264 18.42 258 17.916 257.556 17.292L256.656 17.556ZM260.124 18.744C259.86 18.024 259.596 17.52 259.14 16.884L258.252 17.136C258.636 17.688 258.936 18.288 259.212 19.032L260.124 18.744ZM260.532 23.232C261.012 23.172 261.144 23.172 262.488 23.172H268.86C270.204 23.172 270.336 23.172 270.816 23.232V21.564C270.288 21.636 270.06 21.648 268.872 21.648H262.476C261.288 21.648 261.06 21.636 260.532 21.564V23.232ZM273.756 18.792C274.632 19.068 275.988 19.776 276.96 20.436L277.728 19.116C276.864 18.576 275.664 18 274.536 17.568L273.756 18.792ZM272.808 21.708C273.912 22.116 275.268 22.848 276.06 23.46L276.804 22.104C275.904 21.516 274.728 20.916 273.612 20.472L272.808 21.708ZM279.936 17.748C280.464 18.324 280.8 18.804 281.196 19.536L282.036 19.092C281.628 18.348 281.304 17.892 280.776 17.328L279.936 17.748ZM273.492 27.492C273.72 27.42 273.816 27.396 274.332 27.288C278.628 26.448 281.16 24.48 282.648 20.844C282.096 20.472 281.868 20.28 281.4 19.776C280.536 22.332 278.736 24.3 276.54 25.068C275.268 25.56 274.008 25.836 273.072 25.848L273.492 27.492ZM283.464 18.312C283.092 17.628 282.756 17.172 282.216 16.62L281.412 17.04C281.88 17.556 282.276 18.12 282.636 18.78L283.464 18.312ZM291.708 27.192V27.756H293.088C293.052 27.48 293.04 27.3 293.04 26.844V21.348C293.04 20.82 293.052 20.52 293.076 20.088C292.728 20.124 292.392 20.136 291.96 20.136H287.232C286.752 20.136 286.488 20.112 286.152 20.052V21.384C286.464 21.348 286.644 21.336 287.232 21.336H291.72V23.004H287.544C287.064 23.004 286.788 22.98 286.464 22.92V24.228C286.764 24.192 286.944 24.18 287.544 24.18H291.72V25.992H287.112C286.644 25.992 286.356 25.968 286.032 25.908V27.24C286.332 27.204 286.512 27.192 287.112 27.192H291.708ZM297.144 19.296C298.26 19.92 299.244 20.712 300.204 21.732L301.236 20.424C300.312 19.548 299.568 18.996 298.14 18.108L297.144 19.296ZM297.564 27.216C297.84 27.12 297.876 27.108 298.356 27.012C300.216 26.616 301.704 26.028 302.928 25.212C304.572 24.12 305.712 22.704 306.732 20.508C306.12 20.076 305.928 19.896 305.46 19.332C305.1 20.304 304.764 20.964 304.236 21.732C303.288 23.1 302.172 24.024 300.672 24.672C299.58 25.152 298.152 25.5 297.12 25.56L297.564 27.216Z" fill="#555555"/>
<path d="M80.02 38.776C80.668 38.776 81.028 38.8 81.364 38.848V37.996C81.004 38.056 80.584 38.08 79.996 38.08H76.252V37.132C76.252 36.736 76.276 36.4 76.336 36.112H75.376C75.436 36.424 75.46 36.736 75.46 37.144V38.08H72.016C71.452 38.08 71.044 38.056 70.672 37.996V38.848C71.032 38.8 71.404 38.776 72.004 38.776H72.892C73.288 39.988 73.516 40.54 74.008 41.356C74.428 42.088 74.884 42.7 75.46 43.324C74.092 44.572 72.46 45.448 70.48 45.988C70.708 46.228 70.84 46.408 70.984 46.732C72.94 46.12 74.584 45.184 76.012 43.864C77.38 45.172 78.916 46.06 80.992 46.744C81.136 46.408 81.28 46.192 81.52 45.952C80.32 45.628 79.66 45.364 78.736 44.86C77.908 44.404 77.224 43.924 76.564 43.312C77.332 42.484 77.872 41.692 78.328 40.744C78.628 40.12 78.772 39.748 79.06 38.776H80.02ZM78.184 38.776C77.716 40.432 77.056 41.644 76.012 42.784C75.46 42.184 75.1 41.716 74.704 41.068C74.248 40.3 74.044 39.82 73.72 38.776H78.184ZM88.828 38.74V40.936H86.62C86.116 40.936 85.756 40.912 85.432 40.864V41.704C85.768 41.656 86.164 41.632 86.608 41.632H88.384C87.928 42.952 87.436 44.044 86.644 45.448C86.164 45.496 85.864 45.508 85.636 45.508C85.504 45.508 85.408 45.508 85.228 45.484L85.42 46.348C85.684 46.3 85.852 46.276 86.344 46.228C88.972 45.94 88.972 45.94 89.848 45.808C91.06 45.628 91.06 45.628 92.008 45.46C92.236 45.868 92.332 46.06 92.644 46.684L93.376 46.252C92.488 44.68 91.864 43.768 90.82 42.484L90.172 42.832C90.868 43.696 91.144 44.056 91.648 44.86C90.472 45.076 89.632 45.172 87.532 45.376C88.264 43.996 88.516 43.444 89.212 41.632H92.32C92.752 41.632 93.088 41.656 93.412 41.704V40.864C93.088 40.912 92.776 40.936 92.308 40.936H89.596V38.74H91.888C92.332 38.74 92.632 38.764 92.956 38.812V37.972C92.632 38.02 92.32 38.044 91.876 38.044H89.596V37.216C89.596 36.688 89.608 36.376 89.668 36.028H88.756C88.804 36.304 88.828 36.64 88.828 37.216V38.044H87.148C86.644 38.044 86.272 38.02 85.972 37.972V38.812C86.296 38.764 86.704 38.74 87.136 38.74H88.828ZM83.212 36.712C84.016 37.252 84.544 37.708 85.144 38.38L85.636 37.756C84.964 37.084 84.496 36.7 83.704 36.184L83.212 36.712ZM82.528 39.58C83.344 40.072 83.848 40.468 84.568 41.176L85.036 40.516C84.172 39.796 83.764 39.496 82.984 39.016L82.528 39.58ZM84.496 42.472C84.088 43.564 83.836 44.092 83.344 44.968C83.044 45.484 82.852 45.76 82.612 46.012L83.308 46.636C83.44 46.384 83.476 46.3 83.548 46.18C84.256 44.956 84.616 44.212 85.12 42.94L84.496 42.472ZM94.588 41.992C94.816 41.944 94.924 41.92 95.404 41.884C95.488 41.884 95.716 41.86 96.04 41.824C96.136 41.812 96.136 41.812 96.304 41.8V45.544C96.304 46.252 96.292 46.588 96.232 46.924H97.06C97 46.6 96.988 46.264 96.988 45.544V41.74C97.396 41.692 97.396 41.692 97.948 41.608C98.008 41.836 98.032 41.956 98.116 42.316L98.692 42.1C98.44 41.176 98.188 40.504 97.852 39.784L97.324 39.976C97.552 40.468 97.624 40.648 97.768 41.056C97.3 41.116 96.676 41.176 96.088 41.2C96.652 40.444 97.504 39.148 97.972 38.344C98.176 37.984 98.236 37.888 98.332 37.744L97.624 37.372C97.48 37.84 97.144 38.452 96.46 39.556C96.244 39.268 96.1 39.076 95.8 38.716C96.244 38.032 96.412 37.732 96.88 36.844C97 36.604 97.06 36.496 97.168 36.352L96.424 36.004C96.316 36.496 95.86 37.468 95.368 38.224C95.236 38.056 95.164 37.996 94.96 37.756L94.564 38.296C95.188 38.968 95.704 39.58 96.088 40.132C95.704 40.696 95.704 40.696 95.332 41.236C95.08 41.248 95.044 41.248 94.96 41.248C94.804 41.248 94.708 41.248 94.492 41.224L94.588 41.992ZM101.356 44.116V45.46C101.356 46.036 101.344 46.288 101.308 46.648H101.992C101.956 46.348 101.944 46.06 101.944 45.46V44.116H102.892V45.46C102.892 46.036 102.88 46.288 102.844 46.648H103.528C103.492 46.312 103.48 46.06 103.48 45.46V44.116H104.5V45.808C104.5 46.024 104.44 46.072 104.176 46.072C104.044 46.072 103.888 46.06 103.72 46.024C103.816 46.252 103.852 46.42 103.852 46.696C103.948 46.708 104.14 46.708 104.26 46.708C104.92 46.708 105.136 46.504 105.136 45.868V42.556C105.136 41.968 105.148 41.608 105.184 41.32C104.944 41.356 104.524 41.38 104.008 41.38H101.08C100.384 41.38 100 41.368 99.76 41.344C99.796 41.668 99.808 41.956 99.808 42.52V45.7C99.808 46.216 99.796 46.528 99.76 46.888H100.48C100.444 46.612 100.432 46.216 100.432 45.7V44.116H101.356ZM101.356 43.516H100.432V41.992H101.356V43.516ZM101.944 43.516V41.992H102.892V43.516H101.944ZM103.48 43.516V41.992H104.5V43.516H103.48ZM95.08 42.58C95.008 43.936 94.84 44.836 94.48 45.856L95.104 46.144C95.44 45.124 95.572 44.368 95.728 42.7L95.08 42.58ZM97.42 42.664C97.576 43.216 97.684 43.756 97.804 44.68L98.38 44.488C98.236 43.576 98.188 43.36 97.984 42.532L97.42 42.664ZM98.512 37.276C98.788 37.228 99.052 37.216 99.58 37.216H104.2C104.764 37.216 105.04 37.228 105.34 37.276V36.484C105.016 36.532 104.68 36.556 104.164 36.556H99.688C99.184 36.556 98.812 36.532 98.512 36.484V37.276ZM103.876 40.444C104.32 40.444 104.716 40.456 104.92 40.48C104.896 40.204 104.884 40.024 104.884 39.556V38.932C104.884 38.476 104.896 38.284 104.92 38.032C104.656 38.056 104.332 38.068 103.84 38.068H100.06C99.544 38.068 99.256 38.056 98.968 38.032C99.004 38.332 99.004 38.452 99.004 39.04C99.004 42.76 98.668 44.644 97.744 46.108C98.02 46.276 98.152 46.396 98.32 46.624C98.92 45.604 99.292 44.38 99.484 42.82C99.556 42.232 99.652 41.008 99.664 40.444H103.876ZM99.688 38.692H104.188V39.832H99.676C99.688 39.652 99.688 39.448 99.688 39.172V38.692Z" fill="#555555"/>
<path d="M66 65C66 62.2386 68.2386 60 71 60H355C357.761 60 360 62.2386 360 65V75C360 77.7614 357.761 80 355 80H71C68.2386 80 66 77.7614 66 75V65Z" fill="#EDEDED"/>
<path d="M66 65C66 62.2386 68.2386 60 71 60H159.299V80H71C68.2386 80 66 77.7614 66 75V65Z" fill="#F87089"/>
<path d="M17.45 72.3C17.63 72.81 17.75 73.03 17.96 73.27C18.44 73.81 19.19 74.09 20.2 74.09C21.87 74.09 22.91 73.25 22.91 71.9C22.91 71.26 22.68 70.73 22.24 70.39C21.9 70.13 21.59 70.02 21.01 69.96C21.47 69.87 21.69 69.79 21.95 69.6C22.39 69.29 22.65 68.75 22.65 68.14C22.65 66.94 21.73 66.18 20.28 66.18C19.41 66.18 18.73 66.43 18.29 66.91C18.04 67.17 17.92 67.4 17.75 67.91L18.58 68.09C18.69 67.72 18.76 67.56 18.9 67.38C19.18 67.02 19.62 66.85 20.23 66.85C21.24 66.85 21.84 67.35 21.84 68.21C21.84 68.57 21.69 68.94 21.44 69.18C21.13 69.49 20.64 69.64 19.98 69.64C19.71 69.64 19.47 69.62 19.24 69.58V70.37C19.51 70.34 19.76 70.32 20.04 70.32C21.37 70.32 22.08 70.86 22.08 71.85C22.08 72.8 21.35 73.4 20.19 73.4C19.68 73.4 19.24 73.28 18.9 73.04C18.59 72.82 18.45 72.61 18.29 72.09L17.45 72.3ZM26.8523 74.09C27.7723 74.09 28.4723 73.74 28.9723 73.04C29.4123 72.43 29.6723 71.36 29.6723 70.15C29.6723 69.32 29.5423 68.52 29.2923 67.83C29.1723 67.5 28.9723 67.19 28.6923 66.91C28.2423 66.44 27.6023 66.2 26.8623 66.2C25.8723 66.2 25.1023 66.62 24.6223 67.43C24.2723 68.01 24.0423 69.09 24.0423 70.15C24.0423 70.97 24.1723 71.76 24.4223 72.46C24.5423 72.8 24.7523 73.11 25.0223 73.38C25.4923 73.85 26.1123 74.09 26.8523 74.09ZM26.8523 66.89C27.5523 66.89 28.0923 67.2 28.4223 67.8C28.6823 68.27 28.8723 69.26 28.8723 70.13C28.8723 70.87 28.7723 71.53 28.5623 72.15C28.4723 72.44 28.3123 72.7 28.0923 72.93C27.7923 73.24 27.3623 73.4 26.8623 73.4C26.1823 73.4 25.6623 73.11 25.3123 72.53C25.0423 72.06 24.8423 71.08 24.8423 70.15C24.8423 69.42 24.9423 68.74 25.1523 68.13C25.2323 67.88 25.3923 67.63 25.6023 67.4C25.9223 67.06 26.3323 66.89 26.8523 66.89ZM33.9445 66.34L30.3345 75.49H31.0845L34.6845 66.34H33.9445ZM36.4909 67.08C36.7809 67.04 37.0409 67.02 37.3609 67.02H37.9009V72.81C37.9009 73.27 37.8809 73.59 37.8209 73.94H38.7709C38.7109 73.57 38.6909 73.28 38.6909 72.81V67.95C38.6909 67.41 38.7209 66.9 38.7809 66.29C38.4509 66.33 38.2909 66.34 37.9509 66.34H37.3209C36.9409 66.34 36.7509 66.33 36.4909 66.29V67.08ZM44.7331 74.09C45.6531 74.09 46.3531 73.74 46.8531 73.04C47.2931 72.43 47.5531 71.36 47.5531 70.15C47.5531 69.32 47.4231 68.52 47.1731 67.83C47.0531 67.5 46.8531 67.19 46.5731 66.91C46.1231 66.44 45.4831 66.2 44.7431 66.2C43.7531 66.2 42.9831 66.62 42.5031 67.43C42.1531 68.01 41.9231 69.09 41.9231 70.15C41.9231 70.97 42.0531 71.76 42.3031 72.46C42.4231 72.8 42.6331 73.11 42.9031 73.38C43.3731 73.85 43.9931 74.09 44.7331 74.09ZM44.7331 66.89C45.4331 66.89 45.9731 67.2 46.3031 67.8C46.5631 68.27 46.7531 69.26 46.7531 70.13C46.7531 70.87 46.6531 71.53 46.4431 72.15C46.3531 72.44 46.1931 72.7 45.9731 72.93C45.6731 73.24 45.2431 73.4 44.7431 73.4C44.0631 73.4 43.5431 73.11 43.1931 72.53C42.9231 72.06 42.7231 71.08 42.7231 70.15C42.7231 69.42 42.8231 68.74 43.0331 68.13C43.1131 67.88 43.2731 67.63 43.4831 67.4C43.8031 67.06 44.2131 66.89 44.7331 66.89ZM51.3054 74.09C52.2254 74.09 52.9254 73.74 53.4254 73.04C53.8654 72.43 54.1254 71.36 54.1254 70.15C54.1254 69.32 53.9954 68.52 53.7454 67.83C53.6254 67.5 53.4254 67.19 53.1454 66.91C52.6954 66.44 52.0554 66.2 51.3154 66.2C50.3254 66.2 49.5554 66.62 49.0754 67.43C48.7254 68.01 48.4954 69.09 48.4954 70.15C48.4954 70.97 48.6254 71.76 48.8754 72.46C48.9954 72.8 49.2054 73.11 49.4754 73.38C49.9454 73.85 50.5654 74.09 51.3054 74.09ZM51.3054 66.89C52.0054 66.89 52.5454 67.2 52.8754 67.8C53.1354 68.27 53.3254 69.26 53.3254 70.13C53.3254 70.87 53.2254 71.53 53.0154 72.15C52.9254 72.44 52.7654 72.7 52.5454 72.93C52.2454 73.24 51.8154 73.4 51.3154 73.4C50.6354 73.4 50.1154 73.11 49.7654 72.53C49.4954 72.06 49.2954 71.08 49.2954 70.15C49.2954 69.42 49.3954 68.74 49.6054 68.13C49.6854 67.88 49.8454 67.63 50.0554 67.4C50.3754 67.06 50.7854 66.89 51.3054 66.89Z" fill="#555555"/>
<path d="M31 16C23.2 16 17 22.2 17 30C17 37.8 23.2 44 31 44C38.8 44 45 37.8 45 30C45 22.2 38.8 16 31 16ZM36.4 37L31 31.6L25.6 37L24 35.4L29.4 30L24 24.6L25.6 23L31 28.4L36.4 23L38 24.6L32.6 30L38 35.4L36.4 37Z" fill="#828282"/>
<g filter="url(#filter0_d)">
<path d="M-1 582H374V662H-1V582Z" fill="white"/>
</g>
<g filter="url(#filter1_d)">
<rect x="121" y="602" width="132" height="40" rx="3" fill="#63B9ED"/>
</g>
<path d="M178.457 616.595C178.585 616.275 178.649 616.083 178.745 615.827C179.065 614.979 179.097 614.883 179.225 614.579L177.305 614.243C176.793 616.771 175.737 618.691 174.057 620.195C174.601 620.579 174.985 620.947 175.385 621.491C176.457 620.339 177.081 619.443 177.753 618.131H183.065C182.585 619.315 182.041 620.147 181.081 621.123C181.865 621.571 181.977 621.651 182.553 622.131C183.577 620.851 184.137 619.891 184.825 618.259C185.017 617.811 185.065 617.699 185.177 617.427L184.217 616.499C183.865 616.563 183.401 616.595 182.665 616.595H178.457ZM170.905 616.083C172.185 617.091 172.665 617.571 173.657 618.787L175.033 617.491C174.041 616.403 173.465 615.859 172.281 614.931L170.905 616.083ZM174.489 621.475C173.545 622.707 173.049 623.235 171.961 624.179C171.225 624.819 170.905 625.059 170.569 625.235L171.769 626.915C171.913 626.771 171.977 626.707 172.297 626.419C173.561 625.267 174.569 624.179 175.593 622.867L174.489 621.475ZM178.265 618.867C178.313 619.155 178.329 619.347 178.329 619.587C178.329 621.939 177.561 624.035 176.185 625.427C175.321 626.307 174.441 626.883 173.129 627.411C173.641 628.003 173.881 628.339 174.137 628.931C175.673 628.195 176.745 627.443 177.577 626.483C178.297 625.635 178.889 624.515 179.225 623.331C179.625 624.579 180.297 625.667 181.257 626.627C182.121 627.475 182.905 628.035 184.473 628.899C184.761 628.259 185.049 627.795 185.497 627.203C184.201 626.659 183.593 626.323 182.809 625.699C181.801 624.915 181.017 623.875 180.569 622.755C180.265 621.955 180.073 620.707 180.073 619.539C180.073 619.283 180.089 619.075 180.137 618.867H178.265ZM188.009 624.291C188.137 624.099 188.169 624.051 188.345 623.859C189.305 622.819 190.185 621.747 191.497 619.987C192.041 619.267 192.201 619.123 192.457 619.123C192.761 619.123 192.857 619.203 193.849 620.339C195.561 622.291 195.593 622.339 196.809 623.587C197.977 624.755 199.241 625.955 200.073 626.691C200.313 626.899 200.377 626.963 200.537 627.155L201.513 624.883C200.985 624.579 200.585 624.259 199.769 623.539C197.993 621.939 196.441 620.355 194.985 618.643C194.489 618.051 194.137 617.683 193.913 617.491C193.433 617.091 192.953 616.883 192.473 616.883C192.073 616.883 191.625 617.043 191.193 617.363C190.889 617.571 190.617 617.859 190.201 618.371C188.089 621.027 187.401 621.811 186.713 622.291L188.009 624.291Z" fill="white"/>
<path d="M30.136 625.24C30.808 625.24 31.272 625.272 31.752 625.336V624.264C31.336 624.328 30.872 624.36 30.136 624.36H26.008C26.056 624.04 26.088 623.8 26.104 623.56C26.152 622.792 26.168 622.744 26.2 622.568H25.048C25.08 622.776 25.112 622.984 25.112 623.208C25.112 623.496 25.064 623.944 25 624.36H22.216C21.464 624.36 21.08 624.344 20.68 624.28V625.32C21.144 625.256 21.544 625.24 22.216 625.24H24.824C24.472 626.456 23.8 627.272 22.552 627.992C21.832 628.408 20.984 628.712 19.688 629.032C19.96 629.416 20.104 629.672 20.216 630.024C21.928 629.48 22.744 629.096 23.672 628.408C24.632 627.672 25.208 626.904 25.656 625.72C26.2 626.888 26.856 627.688 27.848 628.408C28.792 629.096 29.784 629.528 31.64 630.056C31.8 629.56 31.864 629.4 32.12 629C31.16 628.808 30.728 628.696 30.2 628.504C29.592 628.296 28.856 627.928 28.392 627.624C27.496 627.048 26.856 626.296 26.376 625.24H30.136ZM31.928 616.264C31.4 616.328 30.952 616.36 30.136 616.36H19.88C19.144 616.36 18.632 616.328 18.12 616.264V617.368C18.664 617.304 19.064 617.288 19.88 617.288H30.136C31.016 617.288 31.432 617.304 31.928 617.368V616.264ZM29.304 622.104C29.976 622.104 30.376 622.12 30.808 622.168C30.76 621.8 30.76 621.528 30.76 621.064V619.56C30.76 619.08 30.76 618.808 30.808 618.472C30.424 618.52 30.04 618.536 29.304 618.536H21.128C20.376 618.536 19.848 618.52 19.368 618.472C19.4 618.904 19.432 619.368 19.432 619.944C19.432 625.336 19.048 627.096 17.416 629.336C17.768 629.56 17.992 629.736 18.264 630.024C19.816 627.8 20.28 626.04 20.392 622.104H29.304ZM20.424 621.24C20.424 620.936 20.44 620.76 20.44 620.312V619.4H29.768V621.24H20.424ZM36.856 618.28C37.208 618.232 37.368 618.216 37.72 618.2C40.152 618.12 42.072 618.008 42.584 617.912C42.68 617.896 42.68 617.896 42.728 617.896L42.76 617.928L42.696 617.992C42.664 618.024 42.632 618.056 42.632 618.056C42.504 618.184 42.504 618.184 42.408 618.28C41.304 619.368 38.776 621.592 37.064 622.952C35.976 623.832 35.4 624.248 34.824 624.584L35.544 625.608C37.4 623.896 39.928 622.872 42.28 622.872C44.44 622.872 45.72 623.784 45.72 625.32C45.72 626.68 44.84 627.656 43.16 628.12C42.936 627.416 42.76 627.032 42.424 626.584C41.784 625.736 40.856 625.272 39.784 625.272C38.456 625.272 37.464 626.072 37.464 627.144C37.464 628.616 38.76 629.448 41.016 629.448C44.568 629.448 46.888 627.8 46.888 625.304C46.888 623.256 45.176 621.944 42.504 621.944C41.096 621.944 39.8 622.28 38.584 622.936L38.552 622.888C39.672 622.168 41.608 620.504 43.816 618.344C44.328 617.848 44.408 617.784 44.632 617.672L43.96 616.792C43.752 616.904 43.608 616.936 43.192 616.968C41.752 617.08 39.624 617.176 38.296 617.176C37.528 617.176 37.24 617.16 36.792 617.08L36.856 618.28ZM42.104 628.408C41.528 628.504 41.336 628.52 40.936 628.52C40.248 628.52 39.56 628.376 39.144 628.152C38.712 627.896 38.504 627.592 38.504 627.176C38.504 626.568 39 626.184 39.8 626.184C40.952 626.184 41.752 626.952 42.104 628.408Z" fill="#63B9ED"/>
<rect x="1" y="97" width="375" height="80" fill="white"/>
<path d="M23.6087 146.59H26.0887C26.9847 146.59 27.4487 146.622 27.9767 146.702V145.358C27.4487 145.438 27.0167 145.47 26.0887 145.47H19.8487C19.0007 145.47 18.5847 145.438 18.0247 145.358V146.702C18.5527 146.622 19.0487 146.59 19.8647 146.59H22.3607V155.822C22.3607 156.574 22.3287 157.134 22.2327 157.63H23.7367C23.6407 157.054 23.6087 156.606 23.6087 155.822V146.59ZM30.7513 157.63C30.6713 157.006 30.6393 156.526 30.6393 155.822V152.75C30.7833 152.078 30.9913 151.646 31.4393 151.07C32.0633 150.286 32.7993 149.902 33.6953 149.902C34.9433 149.902 35.6313 150.654 35.6313 152.046V155.822C35.6313 156.622 35.5993 157.102 35.5193 157.63H36.9593C36.8793 157.038 36.8473 156.574 36.8473 155.838V151.822C36.8473 149.95 35.7273 148.846 33.8553 148.846C32.8793 148.846 32.1433 149.118 31.4553 149.71C31.0713 150.03 30.8953 150.27 30.5753 150.798C30.6233 150.382 30.6233 150.254 30.6233 149.998V147.294C30.6233 146.478 30.6553 146.062 30.7513 145.47H29.3273C29.4073 146.062 29.4393 146.478 29.4393 147.278V155.822C29.4393 156.622 29.4073 157.054 29.3273 157.63H30.7513ZM39.1863 145.47V146.894H40.7383V145.47H39.1863ZM39.2343 149.006C39.3143 149.566 39.3463 150.046 39.3463 150.814V155.822C39.3463 156.494 39.3143 156.942 39.2343 157.63H40.6743C40.5943 157.006 40.5623 156.558 40.5623 155.822V150.814C40.5623 150.014 40.5943 149.566 40.6743 149.006H39.2343ZM42.5508 155.294C42.7108 155.95 42.8228 156.222 43.0628 156.558C43.6548 157.374 44.7748 157.806 46.2308 157.806C48.4228 157.806 49.7828 156.814 49.7828 155.214C49.7828 154.558 49.5108 153.95 49.0148 153.55C48.5348 153.182 48.0228 152.99 46.4708 152.638C45.4788 152.43 45.0628 152.302 44.6948 152.094C44.3428 151.902 44.1508 151.582 44.1508 151.214C44.1508 150.366 44.9828 149.774 46.1508 149.774C46.8708 149.774 47.4468 149.982 47.8148 150.382C48.0388 150.606 48.1188 150.798 48.2148 151.23L49.4788 151.022C49.2708 150.286 49.0468 149.918 48.6308 149.566C48.0548 149.054 47.2068 148.798 46.1188 148.798C45.0468 148.798 44.1828 149.086 43.6228 149.63C43.1748 150.062 42.9348 150.606 42.9348 151.182C42.9348 151.886 43.2388 152.478 43.7988 152.862C44.3428 153.23 44.8868 153.422 46.1668 153.694C47.3508 153.934 47.6708 154.03 48.0548 154.27C48.3908 154.478 48.5508 154.814 48.5508 155.262C48.5508 156.206 47.6708 156.798 46.2788 156.798C45.4628 156.798 44.8228 156.606 44.4228 156.238C44.1028 155.95 43.9748 155.662 43.8628 155.07L42.5508 155.294ZM55.8007 159.182V159.838H63.8167V159.182H55.8007ZM63.8163 159.182V159.838H71.8323V159.182H63.8163ZM83.9921 157.63H85.2881C85.1921 156.99 85.1601 156.59 85.1601 155.87V151.374C85.1601 149.646 84.0721 148.75 81.9601 148.75C80.7601 148.75 79.8001 149.054 79.1441 149.662C78.7441 150.014 78.5361 150.35 78.2481 151.086L79.4961 151.358C79.6561 150.878 79.7841 150.654 79.9921 150.43C80.4401 149.966 81.0961 149.742 81.9761 149.742C83.3041 149.742 83.9921 150.302 83.9921 151.39V152.318C82.0241 152.366 81.2561 152.462 80.3121 152.734C78.8241 153.15 78.0241 154.078 78.0241 155.358C78.0241 156.878 79.0961 157.79 80.8561 157.79C81.4001 157.79 81.9761 157.678 82.5201 157.47C83.0641 157.262 83.3681 157.054 83.9921 156.494V157.63ZM83.9921 154.302C83.9921 154.942 83.8641 155.278 83.4961 155.678C82.8721 156.366 81.8641 156.814 80.9361 156.814C79.8961 156.814 79.2401 156.254 79.2401 155.374C79.2401 154.606 79.6401 154.062 80.4561 153.726C81.1761 153.422 82.0881 153.31 83.9921 153.262V154.302ZM94.2353 160.99C94.1553 160.398 94.1233 159.934 94.1233 159.182V157.198C94.1233 156.766 94.1073 156.526 94.0593 156.078C94.8113 157.182 95.9473 157.774 97.3553 157.774C99.7553 157.774 101.291 156.03 101.291 153.31C101.291 150.526 99.7873 148.846 97.3233 148.846C95.8993 148.846 94.7793 149.438 94.0593 150.574C94.0913 150.302 94.1073 150.126 94.1073 149.918V149.006H92.8273C92.9073 149.614 92.9393 150.078 92.9393 150.846V159.198C92.9393 159.854 92.9073 160.366 92.8273 160.99H94.2353ZM97.2433 156.734C96.4113 156.734 95.6113 156.43 95.0513 155.886C94.4753 155.326 94.1393 154.366 94.1393 153.326C94.1393 151.262 95.3873 149.886 97.2273 149.886C99.0193 149.886 100.043 151.134 100.043 153.31C100.043 155.438 98.9873 156.734 97.2433 156.734ZM110.739 153.502C110.707 153.07 110.643 152.446 110.627 152.27C110.307 150.126 108.819 148.798 106.755 148.798C104.355 148.798 102.787 150.59 102.787 153.326C102.787 156.094 104.371 157.854 106.883 157.854C108.051 157.854 109.027 157.47 109.779 156.734C110.147 156.366 110.355 156.078 110.659 155.406L109.539 154.958C109.091 156.19 108.195 156.83 106.899 156.83C105.939 156.83 105.155 156.446 104.643 155.742C104.211 155.166 104.051 154.574 104.003 153.502H110.739ZM104.051 152.494C104.147 151.886 104.227 151.598 104.451 151.198C104.931 150.302 105.747 149.806 106.723 149.806C107.491 149.806 108.115 150.046 108.611 150.526C109.123 151.022 109.363 151.598 109.459 152.494H104.051ZM114.033 157.63C113.953 157.006 113.921 156.526 113.921 155.822V152.734C114.049 152.094 114.241 151.694 114.657 151.15C115.329 150.286 116.049 149.886 116.945 149.886C118.209 149.886 118.897 150.654 118.897 152.094V155.822C118.897 156.526 118.865 157.006 118.785 157.63H120.225C120.145 157.102 120.113 156.654 120.113 155.838V151.886C120.113 151.102 119.969 150.51 119.665 150.046C119.153 149.262 118.257 148.846 117.105 148.846C115.665 148.846 114.625 149.47 113.873 150.782C113.921 150.414 113.921 150.286 113.921 150.094V149.006H112.593C112.689 149.646 112.721 150.094 112.721 150.814V155.822C112.721 156.59 112.689 157.022 112.593 157.63H114.033ZM122.468 156.046V157.63H124.052V156.046H122.468Z" fill="#555555"/>
<path d="M29.416 121.184C29.448 121.488 29.464 121.616 29.464 122.016C29.464 123.488 29.288 124.912 28.952 126.256C28.264 129.024 26.84 131.072 24.584 132.592C23.64 133.232 22.76 133.664 21.384 134.176C21.64 134.416 21.896 134.752 22.072 135.136C24.728 134.064 26.52 132.752 27.928 130.864C28.392 131.664 28.696 132.112 29.272 132.784C30.056 133.696 30.664 134.256 31.736 135.008C31.96 134.576 32.136 134.32 32.456 133.984C30.712 132.944 29.432 131.632 28.536 129.936C29.112 128.976 29.528 128.048 29.816 127.024C30.12 125.968 30.456 124.032 30.536 122.8C30.6 121.6 30.616 121.536 30.664 121.216L29.416 121.184ZM19.672 131.456C19 131.696 18.584 131.824 17.912 131.984L18.264 133.152C18.584 132.992 18.728 132.928 19.208 132.752C21.848 131.744 23.56 130.912 25.48 129.76L25.272 128.768C24.808 129.104 24.072 129.488 22.824 130.112C22.136 130.448 21.608 130.688 20.728 131.04L20.648 122.928V122.736C20.648 122.16 20.68 121.664 20.744 121.232H19.464C19.56 121.808 19.592 122.256 19.592 122.912L19.672 131.456ZM22.792 122.912C24.216 124.384 24.76 125.088 25.816 126.816L26.776 126.144C25.624 124.448 24.936 123.616 23.672 122.32L22.792 122.912ZM40.056 122.656V133.168C40.056 134.016 40.024 134.544 39.944 135.056H41.272C41.192 134.544 41.16 134.032 41.16 133.168V125.632C42.488 126.304 42.488 126.304 42.824 126.512C44.344 127.376 45.112 127.888 46.216 128.752L46.84 127.76C44.84 126.368 44.312 126.064 41.16 124.48V122.656H46.184C46.92 122.656 47.48 122.688 48.04 122.752V121.568C47.496 121.632 46.952 121.664 46.184 121.664H35.816C35.016 121.664 34.472 121.632 33.944 121.568V122.752C34.504 122.688 35.048 122.656 35.816 122.656H40.056ZM57.864 123.392C58.664 123.424 59.128 123.536 59.72 123.792C61.336 124.512 62.264 125.984 62.264 127.808C62.264 129.776 61.192 131.488 59.432 132.288C58.68 132.64 57.928 132.848 56.76 133.04C57.064 133.424 57.16 133.584 57.32 134.112C58.424 133.872 59.032 133.68 59.752 133.376C62.072 132.384 63.416 130.336 63.416 127.856C63.416 126.32 62.872 124.928 61.864 123.952C60.824 122.928 59.256 122.368 57.464 122.368C55.32 122.368 53.576 123.088 52.296 124.496C51.224 125.696 50.616 127.28 50.616 128.912C50.616 131.152 51.752 132.816 53.272 132.816C54.424 132.816 55.368 131.856 56.296 129.744C57.016 128.064 57.624 125.616 57.864 123.392ZM56.712 123.408C56.504 125.456 55.912 127.824 55.256 129.328C54.568 130.896 53.928 131.648 53.256 131.648C52.392 131.648 51.72 130.464 51.72 128.928C51.72 126.944 52.712 125.136 54.328 124.16C55.064 123.712 55.752 123.488 56.712 123.408ZM72.056 122.656V133.168C72.056 134.016 72.024 134.544 71.944 135.056H73.272C73.192 134.544 73.16 134.032 73.16 133.168V125.632C74.488 126.304 74.488 126.304 74.824 126.512C76.344 127.376 77.112 127.888 78.216 128.752L78.84 127.76C76.84 126.368 76.312 126.064 73.16 124.48V122.656H78.184C78.92 122.656 79.48 122.688 80.04 122.752V121.568C79.496 121.632 78.952 121.664 78.184 121.664H67.816C67.016 121.664 66.472 121.632 65.944 121.568V122.752C66.504 122.688 67.048 122.656 67.816 122.656H72.056ZM82.024 128.592C82.264 128.544 82.408 128.528 82.68 128.512C84.024 128.416 84.024 128.416 84.536 128.384V133.584C84.536 134.208 84.504 134.704 84.44 135.184H85.56C85.48 134.736 85.464 134.288 85.464 133.584V128.288C86.072 128.224 86.2 128.208 86.904 128.112C86.984 128.384 87.016 128.512 87.112 128.896L87.896 128.512C87.528 127.312 87.32 126.8 86.776 125.664L86.056 126C86.344 126.56 86.424 126.752 86.632 127.328C85.656 127.456 85.624 127.456 84.184 127.552C85.048 126.432 85.736 125.456 86.264 124.64C86.68 123.984 87.032 123.44 87.32 123.008L86.392 122.512C86.184 123.088 85.736 123.904 84.792 125.344C84.36 124.832 84.216 124.672 83.816 124.24C84.408 123.376 84.888 122.576 85.384 121.616C85.56 121.28 85.656 121.12 85.768 120.96L84.776 120.544C84.616 121.248 84.12 122.24 83.224 123.616C82.968 123.36 82.824 123.232 82.456 122.88L81.88 123.632C82.792 124.432 83.352 124.992 84.28 126.096C84.008 126.464 83.64 126.976 83.16 127.616C82.856 127.632 82.6 127.632 82.488 127.632C82.216 127.632 82.104 127.616 81.864 127.584L82.024 128.592ZM89.704 122C88.984 122 88.616 121.984 88.2 121.936C88.248 122.368 88.264 122.8 88.264 123.424V126C88.264 126.64 88.248 127.072 88.2 127.488C88.6 127.44 89.048 127.424 89.72 127.424H91.224V133.648C91.224 133.904 91.096 133.984 90.68 133.984C90.264 133.984 89.768 133.936 89.144 133.84C89.304 134.16 89.368 134.384 89.432 134.864C89.736 134.88 90.328 134.912 90.632 134.912C91.8 134.912 92.184 134.64 92.184 133.776V131.76C92.184 131.024 92.136 130.224 92.024 128.784C92.536 130.464 92.968 131.344 93.944 132.576C94.568 133.376 95.048 133.856 95.928 134.528C96.152 134.096 96.328 133.872 96.6 133.632C95.4 132.8 94.616 132.032 93.736 130.752C94.616 130 95.128 129.504 95.976 128.592L95.256 127.92C94.52 128.848 94.024 129.376 93.272 130.032C92.68 129.04 92.44 128.432 92.184 127.424H93.8C94.456 127.424 94.888 127.44 95.304 127.488C95.256 127.072 95.24 126.704 95.24 126.016V123.44C95.24 122.736 95.256 122.368 95.304 121.936C94.872 121.984 94.52 122 93.784 122H91.752C92.024 121.424 92.12 121.232 92.328 120.736L91.224 120.528C91.144 120.96 91.016 121.312 90.728 122H89.704ZM89.16 122.816H94.328V124.272H89.16V122.816ZM89.16 125.104H94.328V126.608H89.16V125.104ZM82.776 129.424C82.616 131.504 82.408 132.496 81.912 133.84L82.776 134.272C83.272 132.8 83.336 132.496 83.672 129.6L82.776 129.424ZM86.104 129.632C86.392 130.656 86.568 131.552 86.712 132.768L87.528 132.464C87.368 131.312 87.192 130.576 86.856 129.392L86.104 129.632ZM90.36 128.864C90.152 128.912 89.944 128.928 89.528 128.928H88.712C88.184 128.928 87.944 128.912 87.608 128.848V129.856C87.928 129.792 88.232 129.776 88.696 129.776H89.736C89.016 131.504 88.168 132.576 86.6 133.68C86.92 133.92 87.096 134.112 87.288 134.416C87.944 133.888 88.504 133.344 88.952 132.816C89.448 132.208 90.056 131.184 90.36 130.448C90.712 129.632 90.712 129.632 90.84 129.392L90.36 128.864ZM100.104 121.52C100.072 121.888 100.04 122.048 99.88 122.8C99.352 125.168 99.16 126.864 99.16 129.136C99.16 130.816 99.272 131.968 99.576 133.664C99.624 133.968 99.64 134.048 99.672 134.304L100.824 134.208C100.824 134.096 100.824 134.016 100.824 133.968C100.824 133.072 101.4 131.152 102.12 129.568L101.352 129.2C100.84 130.368 100.536 131.248 100.312 132.32C100.248 131.472 100.216 130.528 100.216 129.28C100.216 127.36 100.36 125.952 100.696 124.272C100.936 123.184 101.128 122.4 101.368 121.712L100.104 121.52ZM103.4 124.544C104.44 124.656 105.064 124.704 105.96 124.704C107.192 124.704 108.472 124.624 109.4 124.496C110.104 124.4 110.472 124.352 110.504 124.352L110.424 123.216C109.352 123.504 107.912 123.648 106.136 123.648C104.888 123.648 104.104 123.584 103.416 123.408L103.4 124.544ZM104.568 127.664C103.576 128.8 103.176 129.664 103.176 130.64C103.176 131.232 103.336 131.712 103.656 132.112C104.344 132.944 105.496 133.328 107.32 133.328C108.408 133.328 109.48 133.232 110.6 133.008C110.92 132.96 110.952 132.944 111.16 132.928L111 131.696C110.136 132.048 108.776 132.256 107.32 132.256C105.256 132.256 104.248 131.68 104.248 130.496C104.248 129.792 104.648 129.024 105.448 128.144L104.568 127.664ZM115.208 124.208C115.32 124.192 115.4 124.192 115.464 124.192C115.496 124.192 115.608 124.192 115.752 124.208C117.032 124.256 117.752 124.288 117.912 124.288H118.552C118.472 125.456 118.472 125.536 118.456 126.704C116.136 127.712 114.744 129.504 114.744 131.472C114.744 132.896 115.608 133.904 116.808 133.904C117.928 133.904 119.144 133.248 120.376 131.968C121.624 130.704 122.488 129.328 123.416 127.168C125.144 127.616 126.056 128.576 126.056 129.952C126.056 131.376 125.048 132.544 123.304 133.152C122.536 133.424 121.848 133.552 120.904 133.584C121.192 134.016 121.272 134.192 121.416 134.656C122.856 134.48 123.768 134.224 124.68 133.744C126.328 132.88 127.192 131.616 127.192 130.048C127.192 128.176 125.96 126.816 123.752 126.304C124.024 125.552 124.2 125.12 124.248 125.024L123.144 124.688C123.08 125.168 122.952 125.648 122.76 126.128C122.36 126.096 122.168 126.08 121.832 126.08C120.984 126.08 120.28 126.176 119.464 126.4C119.48 125.616 119.48 125.616 119.576 124.256C121.064 124.208 123.496 123.936 125.24 123.616C125.544 123.568 125.592 123.568 125.8 123.536L125.736 122.416C124.52 122.848 122.248 123.184 119.64 123.312C119.752 122.064 119.832 121.52 119.976 121.072L118.728 120.992C118.744 121.104 118.744 121.2 118.744 121.232C118.744 121.344 118.712 121.968 118.696 122.144C118.632 122.96 118.632 122.96 118.616 123.344C118.328 123.36 118.264 123.36 118.216 123.36C116.744 123.36 115.896 123.296 115.224 123.104L115.208 124.208ZM118.456 127.712C118.456 129.648 118.552 130.816 118.776 132.048C118.056 132.624 117.528 132.864 116.936 132.864C116.248 132.864 115.784 132.288 115.784 131.408C115.784 130.608 116.136 129.76 116.76 129.024C117.208 128.512 117.672 128.144 118.456 127.712ZM119.64 131.376C119.64 131.296 119.64 131.216 119.64 131.2C119.64 131.104 119.64 131.072 119.624 130.976C119.48 129.648 119.464 129.376 119.448 127.312C120.184 127.072 120.936 126.944 121.672 126.944C121.848 126.944 121.928 126.944 122.44 126.976C121.704 128.656 121.032 129.776 119.992 130.976C119.864 131.104 119.848 131.136 119.688 131.392L119.64 131.376ZM130.648 124.704C131.432 124.528 132.856 124.4 136.168 124.176C137.944 124.064 138.744 123.984 139.688 123.824C139.08 124.112 138.664 124.336 138.168 124.672C136.264 125.952 135.176 127.728 135.176 129.584C135.176 130.896 135.816 132.08 136.952 132.848C137.864 133.472 138.824 133.808 140.408 134.08C140.664 134.128 140.728 134.144 140.904 134.176L141.112 132.88C141.048 132.88 140.984 132.88 140.952 132.88C140.344 132.88 139.336 132.656 138.552 132.368C137.128 131.824 136.312 130.752 136.312 129.408C136.312 128.08 137 126.784 138.28 125.712C139.16 124.96 140.28 124.384 141.352 124.096C141.96 123.952 142.504 123.888 143.144 123.888L143.048 122.688C142.792 122.768 142.04 122.832 141.144 122.864C139.08 122.96 133.96 123.248 132.056 123.392C131.56 123.424 131.368 123.44 131.144 123.44C131.032 123.44 130.872 123.44 130.568 123.44L130.648 124.704ZM150.872 125.744C150.904 125.744 150.92 125.744 150.936 125.744C150.968 125.744 151.016 125.744 151.096 125.76C151.128 125.76 151.224 125.76 151.368 125.776C151.432 125.776 151.608 125.776 151.88 125.808C152.44 125.84 153.032 125.856 153.688 125.856C154.296 125.856 154.792 125.84 155.512 125.808C155.56 128.144 155.624 129.648 155.672 129.984C155.304 129.792 154.552 129.664 153.896 129.664C152.12 129.664 150.856 130.608 150.856 131.936C150.856 133.328 152.024 134.208 153.88 134.208C155.192 134.208 156.168 133.712 156.552 132.864C156.68 132.576 156.744 132.192 156.744 131.776C156.744 131.632 156.744 131.6 156.712 131.36C156.792 131.408 156.792 131.408 156.856 131.456C156.952 131.52 156.952 131.52 157.016 131.552C158.152 132.208 158.792 132.656 159.288 133.216L159.784 132.096C159.608 131.984 159.576 131.952 159.384 131.824C158.328 131.04 157.88 130.784 156.712 130.256C156.584 128.128 156.552 127.312 156.536 125.728C157.368 125.632 157.816 125.568 158.232 125.472C159.32 125.248 159.32 125.248 159.352 125.248L159.304 124.16C158.696 124.416 157.768 124.608 156.536 124.752C156.52 124.4 156.52 124.144 156.52 123.968C156.52 122.64 156.552 121.888 156.632 121.456H155.432C155.464 121.616 155.48 121.84 155.48 122.112C155.48 123.328 155.48 123.328 155.496 124.832C154.84 124.864 154.408 124.88 153.784 124.88C152.376 124.88 151.688 124.816 150.904 124.624L150.872 125.744ZM155.688 130.96C155.688 130.96 155.704 131.328 155.704 131.44C155.704 132.064 155.608 132.448 155.4 132.688C155.096 133.04 154.472 133.248 153.768 133.248C152.648 133.248 151.912 132.736 151.912 131.952C151.912 131.152 152.728 130.624 153.976 130.624C154.616 130.624 155.032 130.704 155.688 130.96ZM148.04 121.44C148.024 121.648 148.008 121.744 147.864 122.448C147.24 125.216 147.032 126.896 147.032 129.024C147.032 130.64 147.192 132.288 147.48 133.776C147.544 134.144 147.56 134.224 147.576 134.368L148.712 134.256C148.68 134.032 148.68 134.016 148.68 133.936C148.68 132.992 149.304 130.96 150.056 129.392L149.272 129.024C149.24 129.136 149.208 129.2 149.144 129.344C148.6 130.656 148.488 130.96 148.2 132.16L148.136 132.144C148.136 131.984 148.136 131.984 148.136 131.84C148.12 131.552 148.12 131.52 148.12 131.392C148.088 130.656 148.056 129.712 148.056 129.152C148.056 126.528 148.6 123.248 149.288 121.648L148.04 121.44ZM175 132.72C174.792 132.592 174.712 132.544 174.456 132.352C172.776 131.136 171.384 130.4 169.992 130.016C169.928 128.464 169.928 128.464 169.896 127.568C171.08 127.488 172.344 127.36 173.448 127.184C174.008 127.104 174.168 127.088 174.376 127.072L174.312 125.968C173.432 126.272 172.056 126.464 169.88 126.624C169.864 125.776 169.864 125.776 169.848 124.464C171.624 124.352 172.056 124.304 173.56 124.08C174.392 123.968 174.392 123.968 174.664 123.952L174.584 122.864C173.704 123.152 172.056 123.376 169.848 123.52C169.864 122.368 169.896 121.6 169.96 121.264H168.728C168.792 121.616 168.792 121.616 168.808 123.568C168.28 123.568 167.736 123.584 167.416 123.584C165.672 123.584 164.008 123.456 163.32 123.264L163.304 124.352C163.4 124.336 163.48 124.336 163.528 124.336C163.608 124.336 163.704 124.336 163.816 124.352C165.256 124.464 166.552 124.512 167.72 124.512C168.088 124.512 168.344 124.512 168.808 124.496L168.84 126.688C168.392 126.704 167.832 126.704 167.416 126.704C165.8 126.704 164.472 126.608 163.752 126.448L163.736 127.504C163.784 127.504 163.848 127.504 163.864 127.504C163.96 127.504 164.088 127.504 164.264 127.52C165.256 127.6 166.008 127.632 166.968 127.632C167.48 127.632 168.28 127.616 168.856 127.6C168.872 128.016 168.872 128.32 168.888 128.528C168.904 128.992 168.904 129.328 168.92 129.472C168.92 129.568 168.936 129.632 168.936 129.648C168.936 129.792 168.936 129.792 168.952 129.84C168.264 129.728 168.04 129.712 167.512 129.712C166.808 129.712 166.328 129.76 165.848 129.872C164.44 130.192 163.608 131.024 163.608 132.08C163.608 132.736 163.928 133.36 164.472 133.76C165.016 134.176 165.896 134.4 166.952 134.4C168.216 134.4 169.192 134.048 169.656 133.392C169.944 133.008 170.056 132.496 170.056 131.648C170.056 131.44 170.056 131.44 170.024 131.072C170.456 131.248 170.824 131.408 171.096 131.552C172.456 132.256 173.624 133.072 174.36 133.84L175 132.72ZM168.968 131.424C168.968 132.192 168.872 132.64 168.648 132.864C168.344 133.216 167.736 133.392 166.888 133.392C165.496 133.392 164.696 132.912 164.696 132.064C164.696 131.216 165.736 130.64 167.32 130.64C168.024 130.64 168.344 130.672 168.952 130.816L168.968 131.424ZM180.856 123.28C181.208 123.232 181.368 123.216 181.72 123.2C184.152 123.12 186.072 123.008 186.584 122.912C186.68 122.896 186.68 122.896 186.728 122.896L186.76 122.928L186.696 122.992C186.664 123.024 186.632 123.056 186.632 123.056C186.504 123.184 186.504 123.184 186.408 123.28C185.304 124.368 182.776 126.592 181.064 127.952C179.976 128.832 179.4 129.248 178.824 129.584L179.544 130.608C181.4 128.896 183.928 127.872 186.28 127.872C188.44 127.872 189.72 128.784 189.72 130.32C189.72 131.68 188.84 132.656 187.16 133.12C186.936 132.416 186.76 132.032 186.424 131.584C185.784 130.736 184.856 130.272 183.784 130.272C182.456 130.272 181.464 131.072 181.464 132.144C181.464 133.616 182.76 134.448 185.016 134.448C188.568 134.448 190.888 132.8 190.888 130.304C190.888 128.256 189.176 126.944 186.504 126.944C185.096 126.944 183.8 127.28 182.584 127.936L182.552 127.888C183.672 127.168 185.608 125.504 187.816 123.344C188.328 122.848 188.408 122.784 188.632 122.672L187.96 121.792C187.752 121.904 187.608 121.936 187.192 121.968C185.752 122.08 183.624 122.176 182.296 122.176C181.528 122.176 181.24 122.16 180.792 122.08L180.856 123.28ZM186.104 133.408C185.528 133.504 185.336 133.52 184.936 133.52C184.248 133.52 183.56 133.376 183.144 133.152C182.712 132.896 182.504 132.592 182.504 132.176C182.504 131.568 183 131.184 183.8 131.184C184.952 131.184 185.752 131.952 186.104 133.408ZM200.376 129.776V131.296H195.56C194.856 131.296 194.376 131.264 193.944 131.2V132.32C194.424 132.256 194.92 132.224 195.608 132.224H200.376V133.696C200.376 134.48 200.36 134.784 200.28 135.2H201.48C201.384 134.736 201.368 134.432 201.368 133.696V132.224H206.36C207.064 132.224 207.592 132.256 208.04 132.32V131.2C207.624 131.264 207.128 131.296 206.424 131.296H201.368V129.776H204.888C205.464 129.776 205.928 129.792 206.472 129.84C206.424 129.456 206.408 129.04 206.408 128.272V125.408C206.408 124.64 206.424 124.24 206.472 123.808C206.152 123.856 205.672 123.872 204.888 123.872H204.408C205.048 123.072 205.432 122.512 206.136 121.296L205.032 120.88C204.568 121.984 204.072 122.832 203.288 123.872H197.08C196.312 123.872 195.848 123.856 195.512 123.808C195.56 124.24 195.576 124.672 195.576 125.408V128.32C195.576 129.008 195.56 129.328 195.512 129.84C196.04 129.792 196.44 129.776 197.096 129.776H200.376ZM201.368 126.32V124.72H205.416V126.32H201.368ZM200.376 126.32H196.568V124.72H200.376V126.32ZM201.368 128.912V127.152H205.416V128.912H201.368ZM200.376 128.912H196.568V127.152H200.376V128.912ZM198.2 123.344C197.56 122.304 197.336 121.984 196.536 121.056L195.624 121.488C196.44 122.384 196.696 122.752 197.24 123.808L198.2 123.344ZM201.896 123.072C201.368 121.968 201.208 121.68 200.488 120.656L199.544 120.976C200.28 122.016 200.408 122.24 200.92 123.488L201.896 123.072ZM216.936 127.312C216.184 127.312 215.816 127.296 215.368 127.232V128.272C215.848 128.208 216.216 128.192 216.936 128.192H222.808C223.416 128.192 223.8 128.208 224.344 128.288V127.216C223.88 127.296 223.576 127.312 222.808 127.312H222.664V125.328C222.664 124.656 222.68 124.304 222.728 123.968C222.36 124.016 221.992 124.032 221.352 124.032H219.368C219.544 123.376 219.56 123.312 219.784 122.192H222.52C223.24 122.192 223.592 122.208 224.072 122.272V121.232C223.656 121.296 223.208 121.312 222.488 121.312H217.464C216.744 121.312 216.344 121.296 215.864 121.232V122.272C216.344 122.208 216.712 122.192 217.432 122.192H218.808C218.648 123.088 218.584 123.36 218.408 124.032H217.56C217.032 124.032 216.616 124.016 216.184 123.952V124.976C216.568 124.928 217.08 124.896 217.56 124.896H218.168C217.88 125.872 217.848 125.936 217.336 127.312H216.936ZM218.344 127.312C218.808 126.016 218.84 125.952 219.128 124.896H221.688V127.312H218.344ZM210.456 122.144C210.808 122.096 211.16 122.08 211.672 122.08H213.768C214.344 122.08 214.568 122.096 214.984 122.144V121.136C214.616 121.2 214.328 121.216 213.768 121.216H211.672C211.096 121.216 210.824 121.2 210.456 121.136V122.144ZM209.912 124.4C210.296 124.352 210.632 124.336 211.192 124.336H214.056C214.68 124.336 214.952 124.352 215.336 124.4V123.36C215 123.424 214.648 123.44 213.928 123.44H211.192C210.584 123.44 210.28 123.424 209.912 123.36V124.4ZM210.52 126.592C210.856 126.544 211.16 126.528 211.672 126.528H213.848C214.376 126.528 214.584 126.544 214.984 126.592V125.6C214.648 125.648 214.392 125.664 213.848 125.664H211.672C211.112 125.664 210.872 125.648 210.52 125.6V126.592ZM210.52 128.8C210.888 128.752 211.144 128.736 211.672 128.736H213.832C214.376 128.736 214.584 128.752 214.984 128.8V127.808C214.648 127.856 214.408 127.872 213.848 127.872H211.672C211.112 127.872 210.856 127.856 210.52 127.808V128.8ZM210.536 133.568C210.536 134.208 210.504 134.688 210.44 135.136H211.448V134.272H214.056V134.928H215.048C214.984 134.496 214.968 134.128 214.968 133.6V131.328C214.968 130.752 214.984 130.416 215.016 130.08C214.728 130.128 214.536 130.128 213.848 130.128H211.736C211.272 130.128 210.872 130.112 210.456 130.064C210.52 130.48 210.536 130.848 210.536 131.392V133.568ZM211.448 130.96H214.056V133.424H211.448V130.96ZM216.392 133.6C216.392 134.304 216.36 134.8 216.312 135.168H217.368V134.368H222.312V135.168H223.368C223.32 134.816 223.288 134.272 223.288 133.616V130.944C223.288 130.304 223.304 129.872 223.352 129.536C223.016 129.584 222.68 129.6 221.976 129.6H217.736C217.064 129.6 216.728 129.584 216.328 129.536C216.376 129.936 216.392 130.32 216.392 130.864V133.6ZM217.368 130.48H222.312V133.456H217.368V130.48ZM230.552 123.232C228.92 123.232 227.704 123.168 227.128 123.056L227.112 124.16C227.288 124.144 227.32 124.144 227.464 124.144C227.512 124.144 227.64 124.144 227.72 124.144C228.312 124.16 229.816 124.192 230.072 124.192C230.152 124.192 230.312 124.176 230.376 124.16C230.28 124.32 230.28 124.32 230.232 124.4C229.08 126.448 227.752 128.128 226.648 128.976L227.544 129.872C227.8 129.44 228.152 129.072 228.776 128.544C230.072 127.44 231.336 126.848 232.344 126.848C233.096 126.848 233.48 127.232 233.608 128.112C232.536 128.576 231.768 128.992 231.224 129.392C230.136 130.208 229.592 131.04 229.592 131.92C229.592 133.568 230.984 134.384 233.848 134.384C235.08 134.384 236.472 134.272 237.736 134.064C238.056 134.016 238.136 134 238.376 133.984L238.232 132.752C237.32 133.12 235.544 133.376 233.96 133.376C231.704 133.376 230.712 132.912 230.712 131.856C230.712 130.896 231.544 130.144 233.72 129.12C233.736 129.312 233.736 129.344 233.736 129.6C233.736 130.576 233.688 131.552 233.64 131.904L234.728 131.888C234.696 131.664 234.696 131.536 234.696 131.312C234.696 131.168 234.696 130.944 234.712 130.592C234.728 130.272 234.728 129.92 234.728 129.712C234.728 129.312 234.728 129.152 234.696 128.736C236.696 127.952 238.136 127.472 238.968 127.328L238.456 126.208C238.2 126.384 238.152 126.4 237.368 126.672C236.664 126.928 235.752 127.264 234.584 127.728C234.376 126.544 233.656 125.952 232.472 125.952C231.64 125.952 230.792 126.224 230.056 126.736C229.896 126.848 229.896 126.848 229.32 127.296C229.304 127.28 229.304 127.28 229.288 127.248C229.288 127.248 229.288 127.248 229.288 127.232C229.288 127.232 229.304 127.232 229.304 127.216C229.32 127.2 229.4 127.136 229.512 127.056C229.576 127.008 229.896 126.64 230.056 126.448C230.616 125.76 231.016 125.12 231.496 124.176C233.432 124.112 235.112 123.984 236.776 123.76C237.064 123.712 237.16 123.696 237.416 123.68L237.32 122.592C236.44 122.88 234.84 123.072 232.28 123.2C232.136 123.2 232.136 123.2 231.944 123.216C232.024 123.072 232.232 122.64 232.44 122.128C232.712 121.472 232.712 121.472 232.856 121.264L231.576 121.04C231.528 121.552 231.336 122.112 230.808 123.232H230.552ZM248.44 128.4V129.92H247.112C246.392 129.92 246.024 129.904 245.672 129.84V130.784C246.024 130.72 246.408 130.704 247.128 130.704H254.44C255.208 130.704 255.624 130.72 256.008 130.784V129.84C255.608 129.904 255.24 129.92 254.44 129.92H252.952V128.4H253.96C254.696 128.4 255.048 128.416 255.464 128.48V127.552C255.096 127.616 254.728 127.632 253.992 127.632H252.952C252.968 127.152 252.984 126.944 253.016 126.608H251.928C251.976 126.912 251.992 127.152 252.008 127.632H249.368C249.368 127.152 249.4 126.896 249.432 126.608H248.344C248.392 126.944 248.408 127.152 248.424 127.632H247.8C247.048 127.632 246.68 127.616 246.328 127.552V128.48C246.712 128.416 247.08 128.4 247.816 128.4H248.44ZM249.368 128.4H252.024V129.92H249.368V128.4ZM250.2 122.016C250.2 121.648 250.2 121.408 250.232 121.152C249.928 121.2 249.576 121.216 248.824 121.216H247.128C246.6 121.216 246.216 121.2 245.864 121.136V122.096C246.232 122.032 246.568 122.016 247.128 122.016H249.304V123.216H246.968C246.488 123.216 246.2 123.2 245.96 123.168C245.992 123.44 246.008 123.632 246.008 124.048V125.248C246.008 126.08 246.264 126.192 248.136 126.192C249.432 126.192 249.864 126.128 250.088 125.92C250.36 125.68 250.456 125.376 250.552 124.576C250.248 124.496 250.04 124.4 249.72 124.192C249.672 124.8 249.64 125.04 249.56 125.168C249.448 125.36 249.192 125.408 248.04 125.408C246.984 125.408 246.888 125.36 246.888 124.96V123.936H249.24C249.656 123.936 249.928 123.952 250.232 123.984C250.2 123.776 250.2 123.52 250.2 123.136V122.016ZM255.496 122.016C255.496 121.632 255.496 121.392 255.528 121.152C255.224 121.2 254.872 121.216 254.12 121.216H252.424C251.896 121.216 251.512 121.2 251.16 121.136V122.096C251.528 122.032 251.864 122.016 252.424 122.016H254.6V123.216H252.248C251.752 123.216 251.48 123.2 251.224 123.168C251.272 123.568 251.288 123.728 251.288 124.064V125.232C251.288 126.08 251.528 126.192 253.448 126.192C255.704 126.192 255.816 126.128 256.008 124.576C255.72 124.496 255.48 124.384 255.16 124.192C255.112 124.816 255.048 125.12 254.936 125.248C254.808 125.376 254.424 125.424 253.32 125.424C252.84 125.424 252.52 125.392 252.376 125.344C252.216 125.28 252.184 125.216 252.184 124.96V123.936H254.536C254.952 123.936 255.224 123.952 255.528 123.984C255.496 123.76 255.496 123.52 255.496 123.136V122.016ZM249.032 130.832C248.152 131.632 247.448 132.048 246.136 132.56C246.504 132.8 246.68 132.992 246.872 133.28C248.136 132.704 248.728 132.304 249.816 131.344L249.032 130.832ZM251.608 131.392C252.712 132.288 253.624 132.816 255.032 133.36C255.256 133.024 255.384 132.864 255.72 132.544C254.312 132.096 253.432 131.664 252.36 130.88L251.608 131.392ZM242.168 121.808C243.176 122.784 243.624 123.312 244.456 124.528L245.272 123.808C244.456 122.736 243.976 122.208 242.904 121.152L242.168 121.808ZM241.896 128.08C242.264 128.016 242.552 128 243.064 128H244.04V131.872C243.016 132.88 242.312 133.44 241.576 133.776L242.104 134.832C242.328 134.624 242.328 134.624 242.616 134.384C243.176 133.92 243.176 133.92 243.368 133.76C243.736 133.44 244.008 133.168 244.488 132.672C244.968 133.392 245.496 133.888 246.152 134.208C247.112 134.656 247.944 134.752 250.744 134.752C252.68 134.752 254.472 134.72 256.12 134.64C256.232 134.096 256.264 134 256.488 133.488C254.808 133.712 253.016 133.808 250.04 133.808C248.152 133.808 247.208 133.68 246.408 133.328C245.752 133.024 245.416 132.688 245.032 131.872V128.72C245.032 127.888 245.032 127.568 245.096 127.04C244.68 127.104 244.376 127.12 243.88 127.12H243.128C242.536 127.12 242.28 127.104 241.896 127.04V128.08ZM258.904 123.728C258.968 123.728 259.048 123.712 259.064 123.712C259.096 123.712 259.208 123.712 259.368 123.696C261.448 123.552 261.832 123.504 262.936 123.2C262.024 123.984 262.024 123.984 261.496 124.624C260.104 126.352 259.368 128.192 259.368 129.952C259.368 132.576 261.112 134.4 263.624 134.4C265.528 134.4 267.208 133.312 267.912 131.616C268.328 130.64 268.536 129.552 268.536 128.352C268.536 127.072 268.392 126.224 267.896 124.704C268.936 126.64 269.496 127.376 270.792 128.544L271.096 128.816L271.176 128.88L271.448 129.12L272.056 128.016C271.288 127.648 269.88 126.256 269.16 125.136C268.568 124.288 267.928 123.056 267.656 122.224L266.504 122.608C267.096 123.824 267.496 125.92 267.496 127.76C267.496 129.12 267.32 130.144 266.92 131.088C266.36 132.4 265.032 133.28 263.624 133.28C261.816 133.28 260.472 131.888 260.472 130C260.472 128.368 261.208 126.624 262.664 124.864C263.336 124.048 263.656 123.744 264.536 123.136L263.864 122.128C263.272 122.416 261.416 122.64 259.64 122.64C259.304 122.64 259.16 122.624 258.888 122.592L258.904 123.728ZM268.472 121.408C268.936 121.904 269.72 123.104 270.104 123.952L270.92 123.472C270.44 122.528 269.992 121.856 269.272 120.992L268.472 121.408ZM270.296 120.56C270.904 121.28 271.576 122.32 271.928 123.072L272.728 122.608C272.2 121.6 271.8 121.008 271.064 120.128L270.296 120.56ZM278.28 121.024C278.248 121.76 277.992 123.12 277.736 124.032C277.432 124.032 276.904 124.048 276.584 124.048C275.704 124.048 275.224 124.016 274.68 123.92L274.664 125.024C274.76 125.024 274.84 125.024 274.872 125.024C274.92 125.024 275.048 125.024 275.224 125.04C275.464 125.04 276.008 125.056 276.28 125.056C276.52 125.056 277.064 125.04 277.464 125.024C277 126.544 276.536 127.696 275.8 129.152C275.208 130.304 274.776 131.008 274.264 131.648L275.352 132.288C275.432 132.16 275.528 131.968 275.672 131.744C276.28 130.688 276.424 130.416 276.808 129.648C277.512 128.176 278.088 126.688 278.584 124.976C279.56 124.912 280.552 124.784 281.208 124.64C281.592 124.576 281.592 124.576 281.768 124.544L281.72 123.44C280.984 123.68 279.976 123.872 278.856 123.968C279.08 123.152 279.176 122.768 279.288 122.224C279.416 121.568 279.432 121.504 279.544 121.2L278.28 121.024ZM287.704 125.44C286.408 124.608 285.336 124.064 283.48 123.328L282.888 124.224C284.568 124.832 285.784 125.472 287.128 126.4L287.704 125.44ZM287.736 132.528C287.624 132.448 287.624 132.448 287.448 132.272C286.584 131.504 285.592 130.896 284.312 130.336C284.216 129.728 284.136 128.624 284.136 127.904C284.136 127.344 284.184 127.008 284.344 126.416L283.256 126.304C283.128 126.896 283.096 127.28 283.096 127.856C283.096 128.256 283.128 129.008 283.208 130.048C282.584 129.872 282.184 129.808 281.592 129.808C280.872 129.808 280.264 129.92 279.704 130.16C278.808 130.528 278.216 131.328 278.216 132.192C278.216 133.616 279.416 134.512 281.336 134.512C283.288 134.512 284.376 133.6 284.376 131.952C284.376 131.792 284.376 131.696 284.344 131.44C285.512 132.048 286.52 132.848 287.144 133.616L287.736 132.528ZM283.288 131.072C283.288 131.072 283.32 131.568 283.32 131.76C283.32 132.96 282.696 133.504 281.32 133.504C280.056 133.504 279.288 133.008 279.288 132.192C279.288 131.312 280.152 130.752 281.512 130.752C282.152 130.752 282.616 130.832 283.288 131.072ZM291.416 125.536C291.656 125.504 291.736 125.488 292.04 125.488C294.152 125.456 296.152 125.296 297.736 125.072C297.832 125.232 297.832 125.264 298.008 125.6C298.696 126.944 299.096 127.6 299.928 128.736C299.256 128.384 297.992 128.16 296.616 128.16C295.32 128.16 294.36 128.336 293.512 128.752C292.392 129.296 291.704 130.304 291.704 131.36C291.704 132 291.96 132.624 292.424 133.12C293.16 133.888 294.632 134.32 296.584 134.32C298.168 134.32 299.688 134.048 301.288 133.456L301.112 132.224C299.912 132.848 298.152 133.248 296.568 133.248C295.192 133.248 294.04 132.976 293.448 132.512C293.064 132.192 292.84 131.76 292.84 131.264C292.84 130.688 293.176 130.112 293.704 129.776C294.424 129.328 295.4 129.104 296.744 129.104C297.832 129.104 298.728 129.248 299.544 129.52C299.992 129.68 300.216 129.824 300.648 130.176L301.72 129.568C300.6 128.08 299.416 126.16 298.84 124.912C299 124.88 299 124.88 299.384 124.8C300.392 124.608 300.584 124.56 301.544 124.304C302.024 124.176 302.152 124.144 302.488 124.08L302.328 122.944C301.464 123.312 300.008 123.696 298.456 123.952C298.312 123.648 298.264 123.568 297.88 122.544C297.48 121.52 297.48 121.52 297.416 121.104L296.152 121.28C296.296 121.568 296.392 121.792 296.568 122.208C296.856 122.928 297.112 123.568 297.352 124.112C295.848 124.32 294.04 124.448 292.584 124.448C292.04 124.448 291.768 124.432 291.352 124.368L291.416 125.536ZM307.176 122.656C307.208 122.944 307.208 122.992 307.224 123.6C307.304 127.536 307.528 129.584 308.088 131.104C308.632 132.64 309.464 133.536 310.36 133.536C311.496 133.536 312.232 132.464 313.016 129.664C312.568 129.312 312.424 129.168 312.072 128.752C311.864 129.84 311.608 130.688 311.24 131.488C311 132.016 310.728 132.288 310.44 132.288C309.832 132.288 309.176 131.184 308.824 129.552C308.584 128.528 308.408 126.336 308.408 124.576C308.408 123.696 308.44 123.168 308.52 122.672L307.176 122.656ZM315.272 124.016C317.144 126.192 318.312 128.928 318.6 131.904L319.736 131.44C319.448 129.648 319.144 128.512 318.536 127.168C317.944 125.808 317.288 124.752 316.248 123.52L315.272 124.016ZM324.28 130.24C322.952 130.24 321.88 131.312 321.88 132.64C321.88 133.968 322.952 135.04 324.28 135.04C325.608 135.04 326.68 133.968 326.68 132.64C326.68 131.312 325.608 130.24 324.28 130.24ZM324.28 131.152C325.096 131.152 325.768 131.824 325.768 132.64C325.768 133.456 325.096 134.128 324.28 134.128C323.464 134.128 322.792 133.456 322.792 132.64C322.792 131.824 323.464 131.152 324.28 131.152Z" fill="#555555"/>
<g filter="url(#filter2_d)">
<rect x="17" y="191" width="343" height="48" rx="3" fill="white"/>
</g>
<path d="M40.155 214C40.155 217.899 37.1099 221 33.4254 221C29.7409 221 26.6958 217.899 26.6958 214C26.6958 210.101 29.7409 207 33.4254 207C37.1099 207 40.155 210.101 40.155 214Z" fill="white" stroke="#63B9ED" stroke-width="2"/>
<path d="M57.6489 220.904H58.9449C58.8489 220.264 58.8169 219.864 58.8169 219.144V214.648C58.8169 212.92 57.7289 212.024 55.6169 212.024C54.4169 212.024 53.4569 212.328 52.8009 212.936C52.4009 213.288 52.1929 213.624 51.9049 214.36L53.1529 214.632C53.3129 214.152 53.4409 213.928 53.6489 213.704C54.0969 213.24 54.7529 213.016 55.6329 213.016C56.9609 213.016 57.6489 213.576 57.6489 214.664V215.592C55.6809 215.64 54.9129 215.736 53.9689 216.008C52.4809 216.424 51.6809 217.352 51.6809 218.632C51.6809 220.152 52.7529 221.064 54.5129 221.064C55.0569 221.064 55.6329 220.952 56.1769 220.744C56.7209 220.536 57.0249 220.328 57.6489 219.768V220.904ZM57.6489 217.576C57.6489 218.216 57.5209 218.552 57.1529 218.952C56.5289 219.64 55.5209 220.088 54.5929 220.088C53.5529 220.088 52.8969 219.528 52.8969 218.648C52.8969 217.88 53.2969 217.336 54.1129 217C54.8329 216.696 55.7449 216.584 57.6489 216.536V217.576ZM62.564 220.904C62.484 220.264 62.452 219.832 62.452 219.096V215.96C62.452 215.544 62.692 214.792 62.98 214.36C63.476 213.592 64.244 213.144 65.076 213.144C66.228 213.144 66.868 213.912 66.868 215.32V219.096C66.868 219.912 66.836 220.328 66.756 220.904H68.196C68.116 220.36 68.084 219.912 68.084 219.112V215.96C68.084 215.48 68.308 214.776 68.612 214.312C69.076 213.576 69.828 213.144 70.628 213.144C71.908 213.144 72.468 213.8 72.468 215.32V219.096C72.468 219.944 72.452 220.312 72.356 220.904H73.796C73.716 220.344 73.684 219.912 73.684 219.112V215.16C73.684 214.216 73.524 213.592 73.14 213.08C72.66 212.44 71.86 212.104 70.804 212.104C69.46 212.104 68.596 212.616 67.844 213.848C67.684 213.368 67.588 213.176 67.348 212.92C66.868 212.376 66.196 212.104 65.284 212.104C64.356 212.104 63.572 212.392 63.028 212.936C62.708 213.272 62.564 213.464 62.42 213.736C62.436 213.432 62.452 213.24 62.452 213.16V212.28H61.156C61.236 212.856 61.268 213.288 61.268 214.088V219.096C61.268 219.848 61.236 220.328 61.156 220.904H62.564Z" fill="#555555"/>
<g filter="url(#filter3_d)">
<rect x="17" y="244" width="343" height="48" rx="3" fill="white"/>
</g>
<path d="M40.155 267C40.155 270.899 37.1099 274 33.4254 274C29.7409 274 26.6958 270.899 26.6958 267C26.6958 263.101 29.7409 260 33.4254 260C37.1099 260 40.155 263.101 40.155 267Z" fill="white" stroke="#63B9ED" stroke-width="2"/>
<path d="M52.12 261.744V263.168H53.672V261.744H52.12ZM52.168 265.28C52.248 265.84 52.28 266.32 52.28 267.088V272.096C52.28 272.768 52.248 273.216 52.168 273.904H53.608C53.528 273.28 53.496 272.832 53.496 272.096V267.088C53.496 266.288 53.528 265.84 53.608 265.28H52.168ZM55.4845 271.568C55.6445 272.224 55.7565 272.496 55.9965 272.832C56.5885 273.648 57.7085 274.08 59.1645 274.08C61.3565 274.08 62.7165 273.088 62.7165 271.488C62.7165 270.832 62.4445 270.224 61.9485 269.824C61.4685 269.456 60.9565 269.264 59.4045 268.912C58.4125 268.704 57.9965 268.576 57.6285 268.368C57.2765 268.176 57.0845 267.856 57.0845 267.488C57.0845 266.64 57.9165 266.048 59.0845 266.048C59.8045 266.048 60.3805 266.256 60.7485 266.656C60.9725 266.88 61.0525 267.072 61.1485 267.504L62.4125 267.296C62.2045 266.56 61.9805 266.192 61.5645 265.84C60.9885 265.328 60.1405 265.072 59.0525 265.072C57.9805 265.072 57.1165 265.36 56.5565 265.904C56.1085 266.336 55.8685 266.88 55.8685 267.456C55.8685 268.16 56.1725 268.752 56.7325 269.136C57.2765 269.504 57.8205 269.696 59.1005 269.968C60.2845 270.208 60.6045 270.304 60.9885 270.544C61.3245 270.752 61.4845 271.088 61.4845 271.536C61.4845 272.48 60.6045 273.072 59.2125 273.072C58.3965 273.072 57.7565 272.88 57.3565 272.512C57.0365 272.224 56.9085 271.936 56.7965 271.344L55.4845 271.568Z" fill="#555555"/>
<ellipse cx="33.4253" cy="267" rx="2.89859" ry="3" fill="#63B9ED"/>
<g filter="url(#filter4_d)">
<rect x="17" y="297" width="343" height="48" rx="3" fill="white"/>
</g>
<path d="M40.1549 320C40.1549 323.899 37.1099 327 33.4253 327C29.7408 327 26.6958 323.899 26.6958 320C26.6958 316.101 29.7408 313 33.4253 313C37.1099 313 40.1549 316.101 40.1549 320Z" fill="white" stroke="#63B9ED" stroke-width="2"/>
<path d="M57.9315 326.904H59.2275C59.1315 326.264 59.0995 325.864 59.0995 325.144V320.648C59.0995 318.92 58.0115 318.024 55.8995 318.024C54.6995 318.024 53.7395 318.328 53.0835 318.936C52.6835 319.288 52.4755 319.624 52.1875 320.36L53.4355 320.632C53.5955 320.152 53.7235 319.928 53.9315 319.704C54.3795 319.24 55.0355 319.016 55.9155 319.016C57.2435 319.016 57.9315 319.576 57.9315 320.664V321.592C55.9635 321.64 55.1955 321.736 54.2515 322.008C52.7635 322.424 51.9635 323.352 51.9635 324.632C51.9635 326.152 53.0355 327.064 54.7955 327.064C55.3395 327.064 55.9155 326.952 56.4595 326.744C57.0035 326.536 57.3075 326.328 57.9315 325.768V326.904ZM57.9315 323.576C57.9315 324.216 57.8035 324.552 57.4355 324.952C56.8115 325.64 55.8035 326.088 54.8755 326.088C53.8355 326.088 53.1795 325.528 53.1795 324.648C53.1795 323.88 53.5795 323.336 54.3955 323C55.1155 322.696 56.0275 322.584 57.9315 322.536V323.576ZM66.9746 318.28C66.3026 318.168 66.0306 318.136 65.5506 318.136C64.7826 318.136 64.2386 318.296 63.6306 318.696C63.2946 318.92 63.0546 319.176 62.7506 319.672C62.7666 319.56 62.7666 319.32 62.7666 319.192V318.28H61.4386C61.5186 318.856 61.5506 319.288 61.5506 320.088V325.096C61.5506 325.752 61.5186 326.168 61.4386 326.904H62.8786C62.7986 326.28 62.7666 325.832 62.7666 325.112V321.848C62.8306 321.128 62.9746 320.744 63.3586 320.248C63.8386 319.608 64.5106 319.272 65.3266 319.272C65.7266 319.272 66.0146 319.32 66.6226 319.512L66.9746 318.28ZM75.8656 322.776C75.8336 322.344 75.7696 321.72 75.7536 321.544C75.4336 319.4 73.9456 318.072 71.8816 318.072C69.4816 318.072 67.9136 319.864 67.9136 322.6C67.9136 325.368 69.4976 327.128 72.0096 327.128C73.1776 327.128 74.1536 326.744 74.9056 326.008C75.2736 325.64 75.4816 325.352 75.7856 324.68L74.6656 324.232C74.2176 325.464 73.3216 326.104 72.0256 326.104C71.0656 326.104 70.2816 325.72 69.7696 325.016C69.3376 324.44 69.1776 323.848 69.1296 322.776H75.8656ZM69.1776 321.768C69.2736 321.16 69.3536 320.872 69.5776 320.472C70.0576 319.576 70.8736 319.08 71.8496 319.08C72.6176 319.08 73.2416 319.32 73.7376 319.8C74.2496 320.296 74.4896 320.872 74.5856 321.768H69.1776Z" fill="#555555"/>
<g filter="url(#filter5_d)">
<rect x="17" y="350" width="343" height="48" rx="3" fill="white"/>
<path d="M40.1549 373C40.1549 376.899 37.1098 380 33.4253 380C29.7408 380 26.6957 376.899 26.6957 373C26.6957 369.101 29.7408 366 33.4253 366C37.1098 366 40.1549 369.101 40.1549 373Z" fill="white" stroke="#63B9ED" stroke-width="2"/>
<path d="M53.416 379.904V379.008C53.416 378.8 53.4 378.672 53.368 378.368C53.624 378.752 53.768 378.928 54.12 379.2C54.856 379.808 55.592 380.064 56.6 380.064C59.096 380.064 60.6 378.368 60.6 375.552C60.6 372.768 59.128 371.104 56.664 371.104C55.208 371.104 54.12 371.68 53.368 372.864C53.416 372.448 53.432 372.16 53.432 371.728V369.568C53.432 368.8 53.464 368.336 53.544 367.744H52.136C52.216 368.368 52.248 368.88 52.248 369.552V378.064C52.248 378.832 52.216 379.296 52.136 379.904H53.416ZM59.368 375.536C59.368 377.728 58.312 379.024 56.52 379.024C54.68 379.024 53.432 377.616 53.432 375.552C53.432 373.504 54.68 372.128 56.568 372.128C58.344 372.128 59.368 373.376 59.368 375.536ZM70.0318 375.776C69.9998 375.344 69.9358 374.72 69.9198 374.544C69.5998 372.4 68.1118 371.072 66.0477 371.072C63.6478 371.072 62.0798 372.864 62.0798 375.6C62.0798 378.368 63.6638 380.128 66.1758 380.128C67.3438 380.128 68.3198 379.744 69.0718 379.008C69.4398 378.64 69.6478 378.352 69.9518 377.68L68.8318 377.232C68.3838 378.464 67.4878 379.104 66.1918 379.104C65.2318 379.104 64.4478 378.72 63.9358 378.016C63.5038 377.44 63.3438 376.848 63.2958 375.776H70.0318ZM63.3438 374.768C63.4398 374.16 63.5198 373.872 63.7438 373.472C64.2238 372.576 65.0398 372.08 66.0158 372.08C66.7838 372.08 67.4078 372.32 67.9038 372.8C68.4158 373.296 68.6558 373.872 68.7518 374.768H63.3438Z" fill="#555555"/>
</g>
</g>
<defs>
<filter id="filter0_d" x="-5" y="582" width="383" height="88" filterUnits="userSpaceOnUse" color-interpolation-filters="sRGB">
<feFlood flood-opacity="0" result="BackgroundImageFix"/>
<feColorMatrix in="SourceAlpha" type="matrix" values="0 0 0 0 0 0 0 0 0 0 0 0 0 0 0 0 0 0 127 0"/>
<feOffset dy="4"/>
<feGaussianBlur stdDeviation="2"/>
<feColorMatrix type="matrix" values="0 0 0 0 0 0 0 0 0 0 0 0 0 0 0 0 0 0 0.25 0"/>
<feBlend mode="normal" in2="BackgroundImageFix" result="effect1_dropShadow"/>
<feBlend mode="normal" in="SourceGraphic" in2="effect1_dropShadow" result="shape"/>
</filter>
<filter id="filter1_d" x="119" y="601" width="136" height="44" filterUnits="userSpaceOnUse" color-interpolation-filters="sRGB">
<feFlood flood-opacity="0" result="BackgroundImageFix"/>
<feColorMatrix in="SourceAlpha" type="matrix" values="0 0 0 0 0 0 0 0 0 0 0 0 0 0 0 0 0 0 127 0"/>
<feOffset dy="1"/>
<feGaussianBlur stdDeviation="1"/>
<feColorMatrix type="matrix" values="0 0 0 0 0 0 0 0 0 0 0 0 0 0 0 0 0 0 0.25 0"/>
<feBlend mode="normal" in2="BackgroundImageFix" result="effect1_dropShadow"/>
<feBlend mode="normal" in="SourceGraphic" in2="effect1_dropShadow" result="shape"/>
</filter>
<filter id="filter2_d" x="16" y="191" width="345" height="50" filterUnits="userSpaceOnUse" color-interpolation-filters="sRGB">
<feFlood flood-opacity="0" result="BackgroundImageFix"/>
<feColorMatrix in="SourceAlpha" type="matrix" values="0 0 0 0 0 0 0 0 0 0 0 0 0 0 0 0 0 0 127 0"/>
<feOffset dy="1"/>
<feGaussianBlur stdDeviation="0.5"/>
<feColorMatrix type="matrix" values="0 0 0 0 0 0 0 0 0 0 0 0 0 0 0 0 0 0 0.25 0"/>
<feBlend mode="normal" in2="BackgroundImageFix" result="effect1_dropShadow"/>
<feBlend mode="normal" in="SourceGraphic" in2="effect1_dropShadow" result="shape"/>
</filter>
<filter id="filter3_d" x="16" y="244" width="345" height="50" filterUnits="userSpaceOnUse" color-interpolation-filters="sRGB">
<feFlood flood-opacity="0" result="BackgroundImageFix"/>
<feColorMatrix in="SourceAlpha" type="matrix" values="0 0 0 0 0 0 0 0 0 0 0 0 0 0 0 0 0 0 127 0"/>
<feOffset dy="1"/>
<feGaussianBlur stdDeviation="0.5"/>
<feColorMatrix type="matrix" values="0 0 0 0 0 0 0 0 0 0 0 0 0 0 0 0 0 0 0.25 0"/>
<feBlend mode="normal" in2="BackgroundImageFix" result="effect1_dropShadow"/>
<feBlend mode="normal" in="SourceGraphic" in2="effect1_dropShadow" result="shape"/>
</filter>
<filter id="filter4_d" x="16" y="297" width="345" height="50" filterUnits="userSpaceOnUse" color-interpolation-filters="sRGB">
<feFlood flood-opacity="0" result="BackgroundImageFix"/>
<feColorMatrix in="SourceAlpha" type="matrix" values="0 0 0 0 0 0 0 0 0 0 0 0 0 0 0 0 0 0 127 0"/>
<feOffset dy="1"/>
<feGaussianBlur stdDeviation="0.5"/>
<feColorMatrix type="matrix" values="0 0 0 0 0 0 0 0 0 0 0 0 0 0 0 0 0 0 0.25 0"/>
<feBlend mode="normal" in2="BackgroundImageFix" result="effect1_dropShadow"/>
<feBlend mode="normal" in="SourceGraphic" in2="effect1_dropShadow" result="shape"/>
</filter>
<filter id="filter5_d" x="16" y="350" width="345" height="50" filterUnits="userSpaceOnUse" color-interpolation-filters="sRGB">
<feFlood flood-opacity="0" result="BackgroundImageFix"/>
<feColorMatrix in="SourceAlpha" type="matrix" values="0 0 0 0 0 0 0 0 0 0 0 0 0 0 0 0 0 0 127 0"/>
<feOffset dy="1"/>
<feGaussianBlur stdDeviation="0.5"/>
<feColorMatrix type="matrix" values="0 0 0 0 0 0 0 0 0 0 0 0 0 0 0 0 0 0 0.25 0"/>
<feBlend mode="normal" in2="BackgroundImageFix" result="effect1_dropShadow"/>
<feBlend mode="normal" in="SourceGraphic" in2="effect1_dropShadow" result="shape"/>
</filter>
<clipPath id="clip0">
<rect width="375" height="662" fill="white"/>
</clipPath>
</defs>
</svg>
